<?xml version="1.0" encoding="UTF-8"?>
<svg version="1.2" viewBox="0 0 766.02 1231" xmlns="http://www.w3.org/2000/svg">
<title>zim</title>
<style>.s0 { fill: #000000 } 
		.s1 { fill: #abc184 } 
		.s2 { fill: #7a0048 } 
		.s3 { fill: #f5d5e3 } 
		.s4 { fill: #d9bfd8 } 
		.s5 { fill: #540a2b } 
		.s6 { fill: #a897a0 } 
		.s7 { fill: #bc0051 } 
		.s8 { fill: #d10053 } 
		.s9 { fill: #990c44 } 
		.s10 { fill: #e794a8 } 
		.s11 { fill: #41722e } 
		.s12 { fill: #8a7e8b } 
		.s13 { fill: #d6818a } 
		.s14 { fill: #a90042 }</style>
<g transform="translate(-229.77 -177)">
<path class="s0" d="m777.6 178.8c4.1 1.1 9 0.4 13.3 2.7 9.2 4.1 19.6 9 26.1 17.8 1.1 1.6 2.7 2.7 3.6 4.7 2.9 2.7 4.5 8.1 7 11.3 2.2 3.3 3.2 8.3 4.7 11.4 0.9 2.8 2.5 5.7 3.4 8.4 0.2 1.8-0.5 4.2 0.7 5.6-0.2 2.5 0.6 5 1.3 7.6 5.6 0.7 11 3.2 15.8 5 2.9-0.3 2.4 4 5.4 3.4 1.1 3.8 2.4 7.8 4.5 11.5 0.9 2.8 2 6.2 2.7 9 0.4 5.5 4 9.8 3.6 15.2 1.5 0.9 0 2.8 1.5 3.6-0.2 2.8 1.9 4.8 1.4 7.9 1.3 2.1 0.9 4.5 1.6 6.6 1.6 1.7 0.9 4.9 2.5 6.7-0.5 2 2.2 3.8 0.9 5.8 1.8 2.1 1.5 5.2 3.1 7-0.2 2.7 1.4 5.2 1.4 7.7 1.3 1.3 1.1 3.8 2 4.7 0.6 1.8 0.9 3.8 2 5.4-0.2 2 0.9 3.2 0.9 5 0.2 0.4 0 0.9 0.5 1.1-0.1-0.2-0.3 0.2-0.3 0.2-0.4 1.1 1.1 1.1 0.5 2.2 1.6 1 0.6 3 1.6 4.5-0.5 2.5 0.9 5 1.3 7.5-0.5 1.7 0.9 2 0.7 4 0.9 2 1.8 4.9 2.2 7.2 1.8 0.3-0.2 2.3 0.7 3.6 2 4.5 1.4 10.6 3.2 15.3 1.5 1.4 0.6 3.8 1.7 5.2-2 1.8 1.9 2.9 0.5 4.7 1.1 3.6 1.4 7.6 2.7 10.6 0.7 3.4 0 7.6 2.2 11 0.7 9.7 4.3 19.1 5.2 29.7 0.7 3.2 0.2 6.3 1.2 9.7 0.9 2.4-1 4.9 0.6 7.4-2.2 7.7 1.2 14.2 0.9 21.6 0.5 12.4 2.1 24.7 3.2 36.2-0.2 1.2-0.5 2.3 0.2 3.4 0.5 2.2 0 4.5 0.7 6.5-1.2 0.7 0.4 2.3 0.4 3.4 0.3 12.9 2 24.7 2 37.3 0.5 4.3 0.3 9.3 0.7 14.4 0.5 5.4 0.3 11.1 1.1 16.3-1.1 0.6 0 1.1 0.1 1.7-0.3 5.9 0.6 11.1 0.9 17.6v18.2c-1.6-0.9-0.3 2.9-2.1 2.3-0.6 1.1 0.3 2.4-0.9 2.9-2.5 5.9-5.8 11.9-9 17.6-1.5 0.2-1.5 2-2 2.9-1.4 1.8-3.2 4.2-4.3 5.4-3.4 5.8-7.8 10.6-11.5 16.4-4 3.9-6 9.5-10.3 12.8 0.2 1.8-2 1.4-1.8 3.2-0.7 0.4-0.9-0.7-1.3 0.2-0.1 0.4 0.2 0.5 0.2 0.9-2.7 3.1-5.7 7.6-8.3 10.1-0.7 1.1-0.9 2.7-2.3 3 0.5 0.9-0.7 0.9-1.1 1.5-4.3 5.2-8.8 10.1-14 14.6 12.4-14.1 21.9-29.2 31.3-44.9 0-1.6 1.3-2.1 1.8-3.6 1.6-4.8 4.5-9.7 6.5-14 0.9-3.6 4.1-6.9 5.4-10.4-0.2-1.3 0.9-2.7 1.4-3.5 0.6-2.5 2-5.7 3.3-7.5 0.7-4.3 3.9-8 4.1-11.7 2.5-6.1 5.2-12.6 7.9-18.8-1.1-28.6-5-56.6-7.5-85.1-0.6-8.6-3.8-18.5-4-27.5-1.1-6.5-1.4-12.6-3.1-18.4-2.1 2.7-5.5 2.5-6.1 6.5-1.1 2-2-0.7-2.3 1.6-1.3 0.4-1.3 2.5-2.5 2.5-2 3.3-5.4 5.6-7.4 8.9-1.6 1.4-3.4 1.8-4 3.7-1.6 1.1-2.5 4-4.5 4.7-0.3 1.6-2.7 1.6-2.9 3.3-1 1.8-3.7 0.8-3.4 3.7-2.7 1.8-3.2 5.3-5.9 6.9-1.1 2.5-4.5 2.1-4.3 5.2-1.3 0.2-2.2 1.8-2.7 3-2.2 2.9-4.4 5.6-6.9 8-0.9 2.5-3.8 3-4.1 6.1-2.5 4.1-6.9 6.5-8.8 11.2-1.1 2.3-4.5 2.5-4.4 5.7-1.6 2.2-3 3.8-5.2 4.9-0.9 3.4-5.2 4.8-6.6 8.4-2.2 1.8-3.3 3.8-5.4 5.4 0.5 2-2 2.6-2 4.3-1.8 1-1.6 2.6-3.3 3.5-1 1.4-0.7 2.9-2.8 3.9 1.4 5.8 1.6 11.9 3.2 17.5 1.4 6.3 2.7 12.6 4 19.3-1.3 0.1 0 1.9-1.3 1.9-1.8 4.4-2.5 8.9-6.1 12.1 0 1.8-1.6 0.9-1.6 2.7-4.2 7.6-10.1 14.9-14.1 22.1-2.3 2.7-4.8 6.2-6.5 9-0.7 2.7-3.9 2.5-3.9 5.4-4.7 5.4-7.9 10.8-12.8 16.1-1.1-0.2-0.4-1.8-0.4-2.6 2.2-3.6 4.7-7.4 7.4-10.4 10.5-20.3 20.2-41.2 29.5-62.5 1.3-6.8-2.8-13.8-3.2-20.7-1.4-1.6-1.3 1.8-2.3 1.8-2.7 2.2-4 5.1-6.2 7.9-1 1.9-3.6 3.7-4.1 5.8-1.1-0.2-1.1 1.8-1.6 2.7-1.8 2.2-3.6 4.3-5.2 6.5 0.3 3-2.9 2.5-3.6 4.9-0.9 5.4-7.6 5.7-8.1 11.6-1.3 0.2-2 2.4-2.7 3.1-1.3 5.2-6.2 7.6-8 12.6 0-0.2 0-0.2-0.1-0.3-2 3.6-4.2 6.4-6 9.7-1.2 2.5-4.8 3.8-4.7 6.8-1.2 2.7-5.4 3.4-5.4 6.7-2.3 1.2-1.2 5-3.7 6.4-0.2 1.5-2.7 1.9-2.2 3.8-2.3 1.5-1.4 5.1-4.3 5.1 0.9 3.4-3.4 3.4-3.8 6.5-4 2.8-2.5 9.5-6.8 12-0.9 1.6-1.8 3.8-2.6 5.6-1.2 2-3 2.7-3.6 5.2-2.7 1.6-1.2 5.4-4.5 6.7-0.3 2.1-1.4 4.5-3.4 5.2-1.8 2.3-2.1 5.6-4.7 7.4 0.8 2-1.9 2-1.6 3.6-2.1 0.5-1.1 3-2.5 3.9-1.3 2.4-1.6 3.8-3.2 6.2-0.6 2.1-2.7 3.6-4.2 5 0 2-2.5 3.6-2.5 5.8-3.1 1.4-2.7 5.2-4.9 7.2-4.1 7.7-7.5 15.6-12 23.3 0.7 1.3-1.3 2-0.9 3.5-0.9 0.7-1.8 1.8-1.6 3-1.5 1.8-2.4 4.5-3.6 6.3-3.8 11.4-9.2 21.8-12.6 33.5-1.5 0.4-1.1 2.2-2 3.2-0.7 4.4-3.4 8-5.1 12.3 0.6 1.2-0.5 1.6-0.9 2.7 0.4 1.8-1 3-1.2 4.9 5.6-2 11.7-2.6 16.7-2.4 1.1-2.1 4.3-0.2 6-1.8 2.1-0.9 3.7 1.1 5.4-0.7 5.2-1.1 11.1 0.2 16.3-1.1 0 0.6 1.1 0.7 0.8 1.5-1.3 3.6-4.4 5.2-6.5 7.7-2 1.8-4 3.2-5.8 5.4-1.2-0.5-1.2 1.1-2 1.1-2.7 3.2-5.4 6.1-8.2 8.8-1.5 1.3-2.9 1.6-3.3 3.6-0.9 0.5-1.6 1.1-2.1 2.3 1.8 1.1 3.2 2.2 5.2 2.7 0.3 0.9 1.2 1.7 2.5 1.8 1.4 1.8 3.6 2.6 4.3 5.1 9.2-2.2 18.4-7 27.6-10.6 1 0 2.3-1.3 3.4-1.1 4.7-2.7 9.9-3.6 14.9-6 1.6-0.5 3.8-1.9 5.4-2.3 4.9-1.6 10.1-3.2 14.4-5.8 23.2-7.2 46.1-17.6 69.9-24.4 0.9-1.5-0.9-2.6-0.9-4.2-0.2-2.3-1.5-4.8-0.8-7 0.2-0.4-0.1-0.7 0.4-0.9 0.7-0.2 0.7 0.9 1.1 1.3 7.7-3.6 16.7-4.2 24.5-7.8 0.1 0 0.5 0.9 0.9 0.2v-0.4c19.8-4.8 38.8-12.7 58.5-18.1 6.3-2 12.6-4 18.9-5.8 5.9-2.2 12.4-5.4 18.9-6.5 2.3-1.6 5.2-2.1 7.5-3 6-2.6 12.1-4.5 18-7.6-4.8-9.4-8.1-18.9-15.5-26.5-0.5-1.2-1.4-1.8-2.1-2.9-1.6-2.1-3.6-4.6-6-5.2 0.2-0.7-0.1-1.4 0.2-1.9 4.7-4.5 10.1-8.3 15-12.6 1.6-0.2 2.7 2.7 4.3 2.8 1.1 0.9 1.6 2.6 2.7 3.1 0.7 0.5 0.9 1.4 1.6 2 2-0.9 3.1-2.7 4.5-4 6.8-8.8 12.6-17.6 18.7-26.8 0.2-0.4 0.9-0.4 1.1-0.5 7.9 15.8 16.2 31.5 16.9 50.4 0 3 0.6 6.8-1.4 9.5 0.3 1.1-0.4 2.2-1.1 2.7-0.2-0.2-0.2-0.2-0.2-0.4-2.5 2.4-5.7 5.3-9.2 5.8-1.8 2-5.4 2.3-7.2 4-0.5-0.9-0.7 0.1-0.9 0.5-1.4 0.9-3.4 1.1-4.5 2.1-1.9 1.7-3.7 1.1-5.2 2.8-2.5 1-4.8 2.5-7.2 3.7-5.2 2.9-12.4 4.4-17.4 8.7-1.3-0.6-2 0.9-2.9 1.2-2.4 2-5.6 2.6-7.9 4.4-2.6 1.6-5.6 2.3-8 4.1-0.1-0.2-0.1-0.2-0.3-0.2-2.7 1.6-5.8 3.6-8.1 4.9-1.5 0-2.9 1.8-4.5 2.3-7.9 3.1-15.1 8.3-22.3 11.9-1.1 1.1-2.2 1.6-3.1 2-1.6 1.2-3.4 2.9-5.4 3.7-2.5 0.6-4.5 2.9-7.4 2.9-0.5 0.9-1.1 2.6-2.5 1.6-2.9 2.4-5.6 5.1-9.4 6-0.5 1.4-2.8 1.6-3.9 2.9-1.5-0.2-1.6 0.7-2.5 1.2-4.4 0.9-6.7 4-11 5.1-2.9 1.6-4.7 2.8-7.8 4.1-0.5 0.2-1 1.1-2.1 1.1-1.8 2-4.5 2.9-6.3 4.5-1.5 0.5-5.6-0.4-6.5 0-3.1-2.4-4.1-6.1-5.8-9.4-4.3 2.4-9.1 4.5-13.5 5.3-3.7 2.3-7.5 4.6-11.3 6.4-2.5 0.8-5 1.3-7.2 3.1-1.1-0.5-0.7 1.2-2 0.5-1.1 1.5-2.9 0.9-3.9 2.2-1.5 0.5-2.6 1.6-4.2 1.6-0.9 1.1-2.3 1.4-3.8 2.2-3.2 1.4-7 3-10.4 4.5-1.3-0.4-2.5 1.2-3.8 0.9-0.3 1.1-1.1 0.3-2 1.1-0.5-0.2-0.7-0.2-1.2 0.1-0.7 1.3-3.1 1.5-4.3 2-2.7 2-6.3 3.8-9.8 4.5-3.6 3.4-9.9 4.5-14.2 7.4-2.5 1.4-4.7 2.5-7.2 3.8-0.9-0.4-1.2 0.5-2.3 1.1-1.1 0.1-2 1.6-3.3 1-1.2 1.5-4.1 0.9-4.8 2.9-2 0.2-4.2 1.4-6.3 2-1.5 0.7-2.9 1.1-4.3 1.6-1.8 0.9-3.5 0.6-4 2.5-2-0.5-2.2 1.7-4.1 1.5 0.3 3 4.1 3.9 3.9 6.5 1.6 6.3 4 12.9 3.1 19.8 0 1.6 1.4 3.2 0.2 4.6 1 2.4 0.7 5.8 0.1 8.3-0.9 5.4 0 11.2-1.2 16.9l-0.7 0.7c0.1 6-1.5 11-2.2 17-2.3 0.5-1.1 3.9-2.9 5-2.7 6.1-2.1 13.7-7.4 18.4 0.6 0.5-0.7 0.3-0.7 1.1-3.6 7.2-8.1 11.8-13.3 18.3-5.8 6.3-12.6 14.4-19.6 18.6-1.1 2.1-4.2 3.2-5.2 5.2-1.3 1.2-3.3 2.1-4.2 3.4-0.9 0.2-1.2 0.5-1.8 1.3-5 2.7-9.3 8.2-14.7 10.7-0.8 1-2.4 0.4-3.1 1.5 0 2.9 1.4 5.6 1.1 8.6-0.6 0.2-0.6 0.6 0 0.8 0 3.4 0.5 6.8 0.3 9.7-0.1 0.2-0.1 0.5-0.1 0.7 0.3 0.7 0.1 2.3 1 3.1-1 3 2 5.9 1.3 9.1 0.4 4.4 1.6 9 1.6 13.7 1.1 0.9 0.4 2.7 0.6 3.6 3.6 6 1.8 13.5 5 19.5-0.2 2.7 1.1 5.5 1.3 8.1 1.8 3 1.9 6.8 2.3 10 0.7 1.1 1.3 2.4 0.9 3.5 0.9 1.9 1.3 3.6 2 5.7-0.2 2 1.1 3.6 0.5 5.8 0.9 1.1 1.3 4.8 1.6 5.4 0.4 0.3 1.5 0.3 1.3 1.2-1.8 2-16.9-4.6-22.7-6.6 2 10.1 5.1 20.1 7.8 30 0 3.5 1.6 6.3 2.1 9.6 2.4 7.9 3.1 16.2 6.3 23.4 1.6 7.5 2.9 15.6 4.7 22.6 3.6 0.8 7.4 1.7 11.2 1 1.9 1.9 0.7 5 1.4 7.7 0.4 7.7 2 14.6 3.2 22.3-1.2 0.4 0 1.3 0.2 2-0.7 3.1 1.1 6.5 0.6 9.7 1.2 5.8 1.6 11.7 2.3 17.5 0 2 0.9 4.5 0.9 6.8 1.8 0.9-0.2 2.4 0.7 3.6 0.9 3.8 0 6.5 1.1 10.5 0.4 2.5-0.4 3.7-0.2 5.9 4.9 3.2 11.9 5.2 15.3 9.9 0.7 0.9 1.6 0.2 2.7 0.7 0.4 0.9 1.6 1.5 2.4 1.3 5 2.7 9.5 6.5 14.4 8.6 0.9 1.5 4.1 1.8 5.2 3.4 0.3 0 1.2 0.9 1.1 0.9 0 0.2 0.1 0.6 0.5 0.4 1.8 1.1 3.4 2.7 5.8 3.2 0.7 0.8 1.4 1.3 1.2 2.4-1.4 1.4-3.2-0.6-4.8 0-3.6 0.3-7.2 0.5-10.5-0.2-1.2 1.4-2.7-0.9-3.9 0.2-2.4 0.9-3.6-1.6-5.6-0.2-2.5-1.1-6.1-0.4-7.9-2.2-2.9 1.1-4.5 0.2-7.2-0.9-1.7 0.4-3.8 0.7-5.3-0.3-1.8 0.2-2.1-0.7-3.7-0.7-0.8-0.8-1.8 0.9-2-0.6-7.2-0.2-13.5-3.2-20.7-3.2-0.9 0-1.5-0.7-2-1.3 3.1-3.9 6.3-7.4 9-11.3 1.6-3.3 4.1-6.5 6.8-9.6-0.1-1.2-1.6-2.5-0.5-3.8-2.2 0-0.5-2.1-1.4-2.3 0.7-0.9-0.9-0.7-0.9-1.4-0.6-1.8-1.5-3.8-1.8-5.6-1.3-2 0.3-4.7-2.4-6.3 0.6-0.2 0-1.1-0.3-1.1-0.6-1.6-0.2-2.9-1.7-4.3 0.6-0.9-0.9-1.8-1-2.7-4.2-12.4-9.8-23.6-14.8-35.6-2.2-3.8-3.6-6.2-5.4-10.5-1.8-3.2-3.6-6.8-6.3-9.7-0.7 0.2-0.7-0.2-0.5-0.5 1.9-1.5 4.6-2 7-2 0.3-0.4 2.7 0 1.6-1.7-0.7-1.6-1.8-3-2.3-5.3-0.9 0-1.3-1.8-1.7-2.7-9.7-16.6-17.2-34.8-27.5-51-7.7-13.5-14.6-27.9-23.9-40.8-2.4-0.6-6-1.1-7.8-0.8-2.1-0.9-4.8-0.7-7-1-4.5-0.4-9.7-1.7-14.2-2.4 0-0.9-1.3-0.7-1.6-0.3-3.5-1.1-8-0.8-11.6-1.5-0.1-0.7-0.7-0.5-1-0.2-0.9-0.9-1.7 0.4-2.9-0.3-19.8-1.7-36.2-2.5-54-1.8-16.2 9.3-30.4 21.4-44.5 33.5-2.7 2.6-5.4 4.8-7.5 7.3-10.8 9.6-19.8 20.7-30.1 30.6 2 2.7 5-0.5 6.8 2 2.4 0.2 4.2 0.9 6.5 0 0.6-0.3 0.7 0.7 1.3 0.9 0.2 2.3-2.9 2.2-3.3 4-16.5 10.8-27 26.4-36.9 41.7-8.1 11.6-14.9 24.5-19 38.2-1.1 3.1-2.4 6.6-4 9.7-0.5 5.1-2.3 9.9-0.5 15.1 0.9 3.5 0 7.6 1.4 10.8 0 1.8-0.4 3.8-1.3 5.1-1.9-2.6-4.3 2.5-6.3-0.4-1.9 0.4-3.4-0.9-5.4 0.2-1.2-1.1-3 0.4-4.3-0.4-14.9 0.2-29-0.1-43.4-1.2-0.3 0.7-0.9 0-1.2 0-2.2 0.2-4.2 0.5-6 0-2.1 0.7-5 0-7.5 0-10.1-0.9-17.7 0-27.6-1.6-0.1-0.4-0.9-0.6-0.7-1.1 6.1-3.3 13.2-2.9 20-4.7 6.1-2.2 13.1-2.7 19.1-4.5 1.4 0 1.8-0.2 3-0.7 17.3-3.4 35-7.2 51.9-12.1 1.8-11.3 3.4-23.4 6.1-34.6 2.7-19.9 7.9-37.7 13.1-57-0.1-3.1 2-5.6 1.5-8.5 1.1-1.4 3.8-0.7 4.8-0.5 3.5-0.9 7.4-0.4 11-0.5 5.1-7.1 6.7-15.3 11.5-22.5 8.5-14.8 16.1-30.3 26.1-44.5-6.4 0.5-12.4 4-19.4 3.2-0.5-1.2 1.1-2.5-0.2-3.6 3.4-6.8 8.7-12.9 12.6-19.4 5.8-6.3 9-12.1 15.7-17.8 4.8-9.4 13.1-16.8 18.7-24.5 17.5-21.6 36.9-41.8 54-62.6 7.2-9.8 15.8-19 23.6-28.5 5.6-7 11.9-13.1 18-20.5 15.1-18.5 31.8-38 47.7-56.9-1.1-0.9-2-1.4-2.2-2.7-2.3-2-5-4.1-7.5-5.7-0.8-2-3.8-2.4-4.5-4.4-2.6-3.2-6.5-4.5-9.2-8.1-8.7-7.9-19.1-14.5-27.4-22.3 0.4-1.1-0.7-0.9-1.1-1.1-10.2-8.6-18.3-17.3-28.9-25.3 0.1-0.4-0.4-0.4-0.2-0.6-2.9-2.3-6-4.3-8.1-7.2-1.3-0.7-2-1.2-3.3-2.3-8.1-6.5-16.3-14.2-23.9-20.7-2.5-3.6-6.8-6.7-10.1-10.7-2.3-1.2-3.9-3.7-6.3-4.8-3.2 3.1-6.3 5.9-8.8 9.3-2.3 1.3-4.1 1.1-6.7 1.1-0.1-1.2-1.6-0.3-2.1-0.9-4.2-5.4-9.9-9.9-14.8-14.9-3-3.4-6.1-7-9.5-9.9-8.7-8.5-17.1-17.1-25.4-25.2-17.6-19.1-36.4-35.5-56-53.1-15.6-17.3-35.8-28.8-52.9-46.3-1.1-1.2-1.3-2.8-0.5-4.1-0.2-0.2-0.4-0.4-0.6-0.7 4.2-9.4 7.9-18.9 14.2-27.2 4.5-9.2 11-16.6 15.3-25.9 2.4-0.4 2-4.5 4-1.6 0.5 5.9 4.7 11.7 6.5 17.4-0.6 1.1 0.9 1.8 1.1 2.5 1.9 6.2 4.6 11.9 5.9 18.2h0.7c2.2-3.8 6.3-6.6 8.5-10.6 1.4 0 2-2.2 3.6-1.4 1.1 3.7 5.4 7.1 7.4 11.1 2.5 4 6.3 8.1 7.5 12.8 1.8 0.7 0.2 2.5 0.7 3.6-4.3 4.3-6.8 9.9-12.2 12.6-4.9 5.2-10.3 10.6-14.6 16.2 5.6 4.5 10.5 8.1 16 13 1.5 0.3 1.8 1.6 3.5 1.9 1.2 2.2 4.5 2.2 5.9 3.8 2.2 2.4 5 3.3 7.2 5.4 1.4 0.4 2.5 2.5 4.1 3.1 0.6 1.1 2 2.3 3.5 2.3 1.4 2.5 5.2 2.5 6.6 5.1 2 1.2 4.3 3.2 6.3 3.9 2.9 2.2 6.5 4.9 9.4 7 2.3 1.1 3.8 2.9 6.5 3.8 4.3 3.8 9.7 6.1 14.5 8.8 5.4 4.7 11.9 7.4 17.5 11 2.5 0 4.5 2 6.8 2.9 1.7 1.8 4.4 2.2 6 4 1.6-0.8 1.2 2.5 2.3 0.8 1.3 2.2 3.6 1.7 4.7 4 2.5 0 3.4 3.1 5.8 3.4 1.6 1.5 4.8 1.3 6.4 3.3 4 0.9 7.8 3.4 9.9 6.8-1.2 3.8-0.9 7.9-4.5 10.8 0.6 0.9 1.5 2.2 2.6 2.2 2.5 2 4.3 3.8 7.2 4.8 1.4 2 4.1 2.6 5.7 4.4 3.8 1.6 6.3 5.5 10.3 7 0.3 1.1 1.8 1.4 2.7 2.1 2.1 1.3 2.7 4.2 5.2 4.2 2 2.3 4.7 2.3 6.1 5 1.6 1.1 4.2 2.7 6 4.3 2.3 1.1 4.1 2 5.9 3.8 2.2-0.5 2 2.5 4.1 2 4.4 3.4 9.2 6.1 13.2 9.7 3.2 0.7 4.8 4.5 8.1 6 3.2 1.6 5.4 5.2 9.3 5.9 2.6 1.8 5.8 2.5 7.6 5 1.8 0 2.7 2.6 4.5 1.7 5 1.4 8.6 5.4 13.1 7.1 0.2 1 1.5 1.9 2.2 1.1 3.6-1.8 7.4-1.8 11.2-3.2 2.5-0.5 4.3 0.2 6.6-0.7 0.2-0.6 0.7-0.2 1.1-0.6-8.6-8.6-16-16.5-23.2-24.8-3.1-2.3-6.5-6.5-9.9-8.5-13-12-28.3-26.6-41.4-39.6-7.4-5-13-12.9-20.4-18-0.1-1 0.2-2.3 1.3-2.5 5.4-0.2 10.3 0.6 15.7 1.6 1.4 0.4 2.8 0.9 4.3 2 3.8 0.6 7.5 1.6 11 3.4 0.7-0.2 0.9 1.1 1.6 0.6 0.5-0.2 0-0.8 0.5-1.1 0.4-7-1.8-13.7 5.2-17.8 2.4-1.5 4.7-2 7.2-1.6 6.5 2.5 9.2 7.5 13.4 12.7 0 3.6 3.2 6.2 5.7 8.9 1.6 0.5 2.7 1 4.2-0.2 2.7-4.7 2.5-9.7 4.3-15 2-3.2 5.4-6.1 8.8-5.5-0.2 0.1 0.2 0.3 0.2 0.5 2.3-0.9 4.8 1.8 6.5 3.6 0.1 2.3 2.1 3.4 3.2 5.4 1.4 3.6 1.6 6.8 3.2 10.1-0.7 2.7 1.3 5.2 0.6 8.1-0.2 2.5 2.5 4.3 1.8 7.4 2.5 2.1 4.3 7.9 9 6.8 0-0.2 0.2-0.4 0.3-0.4-0.9-11.8-0.5-24.6-1.2-36.3-1.1-12.4-2.2-25-4.2-36.7-2.5-9.8-1.6-19.8-4.1-29.6-0.2-0.9-0.4-2.1-0.5-3-0.6-5.4-0.6-9.7-2-14.6-2.2-7.6-2.5-15.7-5.6-23-4.1 4.1-6.7 8.8-10.8 12.7-0.4 1.3-2 1.8-2.5 3.3-7 8.1-15.1 18.9-22.2 27.5-0.1 2.5-3.6 2.5-3.7 4.9 0-3.1-2 0.9-2.6-2-0.3-2.2-0.1-4.5-1.8-6.3-5-25.2-10.6-49.9-19.4-73.8 0.7-1.4-1.1-1.8-1.1-3.1-3-10.9-7-20.8-11.3-31.3-3.3 4.5-5.1 8.3-7.8 12.8-2.5 5.2-5.4 10.4-8.6 14.9-0.7 2.2-3.1 4.4-4 6.9-2.8 7.5-7.3 12.6-9.7 20.3-3 6.3-5.2 13-8.3 19.3-1.6 5.9-5.2 10.9-6.8 16.9-4.1 7.2-5 14.8-8.5 22.1-1.6 6.5-3.2 13.4-6.8 18.6 0 0.3 0 1.1-0.5 1.2-3.3-1-0.8-5.7-1.3-8.6 1.6-12.8 1.3-26.8 5.6-39.3 0.5-5.5 2.3-11.3 3.6-16.9 4.3-17.6 10.2-34 15.3-51.6 3-13.9 9.7-25.6 14.4-38.9 4.5-8.3 9-18.2 16.2-24.8 0.2-2.2 2.9-2.4 3.2-4.5 2.7 0.1 3.8-4.2 6.3-1.1 15 19.2 22.2 42.5 31.2 64.6 3.4 10.4 8.4 20.3 12.2 30.6 0.9 1.6 1.6 1.3 2.2 2.9 1.6-0.9 2.1-2.7 3.7-4 2.2-3.9 5.6-7.2 8.3-11 4.3-2.1-1.1-5.5-1.1-8.6-3.7-12.2-10.2-22.7-15.6-34.4-5.4-10.3-11-20.1-16.8-30.4 0.4-1.4-1.2-1.6-1.6-2.7-7.5-13-19.4-27-28.1-40.9-3.9-7.7-11.5-13.8-16.9-20.8-2-1-3.8-3.5-5.7-5.3-1.8 1.7-3.8 4.5-6 6-1.2 1.6-2.7 2.5-4.7 3-4.3 0.6-7.3-0.3-10.6-2.7-2-2.3-4.7-4.5-4.5-8.1-2-0.5-1.4-3-2.1-4.3 0.5-2.5-0.9-4.3-1.3-6.5-1.1-0.9-2.2-1.9-3.2-1.4-8.3 3.1-12.8 10.6-18.4 17.3-1.6 1.2-3.4 2.3-4.5 3.4-2.2 0.4-6.1 2.3-8.5 0-2.5-0.2-3.7-2.5-5.5-4.1-1.3-0.2-1.7-1.5-2-2.4-3.8-7.5 1.2-15.3 2.3-22.7 1.3-2.3 1.8-5 3.3-7.2-4 0.6-8.5 1.1-12.8 1.1-2.5 0.4-6.5 2.4-8.8 0-1.8-6.1 1.2-12.9 2.3-18.7 1.3-8.3 5.4-16 7.4-24.1-2.9-0.6-5.6 0-8.5 0.3-2.9-1.8-2.1-6.6-3.8-9.5-5.5-24.7-5.2-48.8-1.9-75.1 1.6-4.8 1-10 2.7-14.7 2.1-9 3.2-17.5 7.3-26 2.2-0.5 1.8-4.3 4.9-3 1.1 2.3 4.1-0.2 5 2.2 8.1 2.5 16.8 7.1 23.4 12.5 1.5 0 2.4 1.7 4.2 2 2.5 5.4 4.5-2 6.6-2.1 15.7-24.9 34.4-44.7 50.8-67.9 1.4-1.8 4.1-1.8 6.1-3.2 14.1-3.8 30.6-6 43.9-7.4 18.4-2.4 37.3-2.5 56.2-5.2 0.5 0.9 1.3 0.5 1.6 0 4.7-0.4 9.9-0.4 14.4-0.6 10.8 0 20.7-1.1 31-1.6 0.7 1.3 0.9-0.4 1.6-0.2 3.8-0.2 7.9 0.4 11.3-0.7 4.2-4.3 7.4-8.6 11-11.5 0.7-0.6 1.3-2 2.2-2.5 4.5-3.8 9.3-8.3 13.8-11.6 0.4-0.3 1.7-0.1 1.3-0.9 2.7-2.6 5.8-3.2 8.3-6.3 1.6-0.7 3.2-1.8 4.7-2.5 4.5-4.1 9.5-7.5 15.3-10.4 1.9-0.7 4.1-2 6.1-3.1 0.2 0.2 0.3 0.6 0.5 0.6 2-3.1 6.3-3.1 9.2-4.4 5.6-2.1 11.9-3.7 17.1-5.2 7.2-2.3 14.6-4.3 22.7-5 4.5 0 9.5 0.5 13.7 1.8z"/>
<path class="s1" d="m635.9 251.7c2.2-1.1 3.4 0.3 5.6-0.4-2.2 2.5-2.7 5.8-5.8 7.4-7 8.6-14.4 20.3-19.6 29.3-3.8 4.5-5.4 9.8-8.6 14.8-2.7 4.7-4.4 8.1-6.3 13-0.2 2-1.8 3.9-2.4 6.1-2 3.1-2.7 6.5-4.5 9.7-2.1 5.1-3.8 10.1-5.2 15.1-5 15.5-9.9 31.2-11.5 47.4-1.5 9.7-2.5 18.3-1.6 27.9 1 6.5 1 11 2.5 17.1 0.5 4.3 0.5 8.3 1.8 12.8 0.5 0.7 0.2 1.9 0.3 3.2 1.8 4.7 3.3 9 4 14-1.3 0.2-2.5-0.9-3.2 0.2-1.7-0.5-3.1-0.7-4.4-0.2-1.2-0.9-3.9-0.1-5.2-0.7-18-0.3-36.7 0.2-54.9 0.9-0.2 0-0.2 0-0.2 0.2-10.2-0.2-19.6 1.3-30 1.3-0.2 0.1-0.6 0.7-0.4 0.1-3.8-0.1-10.1 0.8-13.5 0-1.1-0.1-2.7 0.4-3.6 0.6-1.8-0.6-3.8-0.9-5.4 0.2-21.4-1.1-42.6-0.6-64.8-1.3 0.6-8.8 3.1-17.3 4.5-25.9 0.6-2.4 2.4-2.2 2.5-4.5 10.8 1.1 20.7 0.3 31.2 2.1 14.7 1.5 27.2 5.3 42.1 6.2 0.2 0.9 1.6 0.1 1.8 0.7 4.9 1.2 9.7 2.9 14.6 2.1-0.2 0.8 0.5 1.5 1.1 0.9 2.8-0.7 4.8-3.9 5.7-7 2.4-1.1 1.8-3.9 3.4-5.6 1.8-1.9 2.2-3.6 3.3-5.9 2.3-2.3 3.6-5.4 5.7-8.1-0.3-2 2.4-2.5 2-4.3 3.1-5.4 6.1-11.5 8.7-17.5 3.4-0.9 1.2-5.2 5.4-1.8 0-0.3 0.5 0 0.9-0.2 0.1 0.6 0.3 2.2 1.2 1.3 2.5-4 4.7-8.3 6.1-13.1 1.7-1.5 1.1-4 1.8-5.8 2.2-7.6 5.1-15.8 4.2-23.9-1.1 0.1-1.1 1.7-1.5 2.7-2.8 11.8-6.4 23.2-13.1 33.3-4.3-1.8-6.1-4.7-10.1-6.5-2.5-1.5-4.8-2.4-7.2-4.2-2.1-0.9-4.7-3.4-7-4.3-3.4-1.4-6.1-3.9-9.9-5.2-0.5-2.3-4.1-2-5.2-4.5-1.3-0.4-1.8-2-3.3-2.3-4.1-1.3-7-4.9-10.9-6.3-0.9-2.6-4.4-2.6-5.8-4.5-1.1-0.6-2.2-1.5-3.1-2.2-1.8-0.4-2.7-2-4.3-2.5-4.5-1.8-7.2-5.3-11.5-6.3-3.2-3.5-8.1-6.1-12.1-9.2-0.3 0.2-0.1-0.4-0.1-0.6 1.6-1.6 2.1-3.4 3.6-4.3 2.1-3.9 5.5-7 7-11.5 1.2-0.5 0.7-2.5 2.1-3-0.3-0.2 0.9-0.8 1.1-1.5 0.7-0.5 0.6-2.3 1.8-2.3 4.2-5.2 7.4-11.6 11.5-16.2 1.7-2.2 2.9-4.4 4.7-6.2 0.9-2.7 3.6-3.7 4.2-6.4 4.1-3.8 6.6-9.8 10.6-14.1 1.4-1.2 3.2-2.7 4.3-4.5 0.4 0.8 0.9 0.8 1.3 0 0.1-0.2 0-0.3-0.2-0.3 1.6-0.4 3.2-1.1 4.7-0.7 1.4-1.3 3.2-0.2 4.8-1.1 2.7-0.6 4.3-0.6 7.4-1.8 0.7 1.2 1.3-0.4 2.2-0.2 1.4-0.2 2.8-1.4 4.5-0.6 1.4-0.5 3.6-0.7 5.2-1.6 3 0.8 6.5-0.5 9.3 0 4.7-0.9 9.2-1 13.9-2.1 2.9 0.2 7-0.9 8.8-2 1.8-0.9 2.2 1.2 4 0.5 1.4-0.5 3-0.7 4.3-1.6 1.1 1.5 3.4 1.3 5 0.9 2.7-0.4 5.1-0.9 8.1-1.1 2.6-0.5 6.9-0.7 9.6-1.2 7-0.9 14.2-1.8 21.4-2.9 0.4 0.2 1.4-0.2 1.3 0.5 2.3 0.4 4.3 0.2 6.3-0.5 1.9 0.9 4.3-0.4 6.4 0 2.7 0.7 5.8-0.5 8.7-0.2 2.5 0.2 5.7-1.4 7.9 0.2z"/>
<path class="s1" d="m844.5 262c2.4 0.3 3.6 1 6.1 1 2 4.3 2 9.6 5.1 13.5 1.4 7.4 3.6 15.2 6.1 22.3 0.9 1.7 0.9 4 1.8 5.4 1.1 8.7 4.7 16.4 5.2 25.1 0 2.1 1.5 2.9 2 4.5-0.9 2.7 1.4 5.2 1.1 7.9 1.8 2.1 0.7 6.1 2.5 8.1 0.2 2 0.4 4.3 0.7 6.5 1.5 2.7 0.6 4.7 1.5 7.5 0.3 0.9 0.7 2 0.7 3.1 0 1.4 0.7 2.5 1.4 3.9 6.3 23.1 7.4 48.1 14.2 71.5 0 11.2 3.3 21.6 4 32.6-0.5 1.8-0.2 2.9-0.2 4.7-6.5 10.4-16.2 17.6-24.1 26.4-10.6 11.4-22.7 24.3-31.5 37.5-14.4 18.7-28.8 37.6-42.1 56.9-8.3 12.6-16.2 24.3-24.9 36.5-4.3 6.5-9.1 14.2-13.3 20.9-2.7 2.9-4.8 6.8-6.6 10.2l0.1 0.2c-4.8 4.9-8.1 11-12 16.2-8.7 12.4-17.1 25-24.3 38.2-3.1 3-6 7.9-8.5 11.7-0.7 2.5-2.3 5-3.6 7.7-0.9 2.9-3.8 4.2-4.1 7.2-1.6 2.5-2.2 4.9-4.2 7.6-5.2 10.2-11.8 20.3-17.8 29.7-3.2 4.8-5.9 10.4-8.8 15.5-0.5 0.1-0.9 1.6-1.6 2.3-11.7 22.3-20.2 46.3-31.2 69.1-1.6 1.3-1.2 3.6-2.5 4.9 0.4 1.6-1.1 2.9-1.4 4.3-0.6 3.4-3.3 5.9-3.1 9.5-4.8-0.1-9 2.2-13.1 2-0.7 0.7-1.6 0.2-2.5 0.9-2.2-1.2-3.8 0.7-6 0.2-0.3 0.4-0.5 0.4-0.9 0-5.9 0-10.1 2.2-16.5 1.4-1.1 0.9-2.7 1.5-3.8 0.8-0.9-0.9-1.3-1.3-1.6-2.4-2.4-3.6-6.5-5-8.3-8.4-6.9-7.4-15.5-16.6-22.9-24-2-2.7-4.7-3.9-6.3-6.6-1.4-0.8-2.9-1.1-3-2.7-3.3-2.2-5.3-5.4-8.5-8.1-1.4-0.2-1.1-2.4-2.7-2.2-1.4-1.6-3.2-3.2-5-4.3-2.4-1.5-5.4-5.2-8-6.9-1.9-1.2-2.5-3.6-5-3.9-3.2-4.9-10.1-8.5-14.4-12.4 2.2 0.5 4.7 2.1 7 3 7.2 3.1 14.4 6 22 8.5 2.3 1.6 5.6 2.7 8.3 4.1 26.4 11.9 51.1 27.2 77.5 38 2.2 1.1 4.5 2.2 7.1 3.1 1.2-1.5 4.5 0.9 4.8-2 2.2-5.1 2.9-10.6 5.2-15.7 0.9-5 3.1-9.7 5.1-14.4 0.9-3.2 1.4-6.3 2.7-9-0.2-2.5 1.2-4.7 0.9-7 2.1-4.3 2.7-9.5 4.3-14.2 1.3-3.1 1.8-6.9 3.6-9.9 2-4.2 2.2-9.4 5-12.8-0.1-2.9 2.9-5.2 3.3-8.6 2-3.5 3-5.3 4.3-8.9 2-1 0.4-3.2 2.3-3.7 1.3-2.7 1.8-5.4 4-7.6 1.3-4 2.3-8.5 4.9-11.9 0.1-2.5 1.8-4.7 2.5-6.8 1.2-1.3 0.7-2.7 2.3-4 0.7-3.8 3.6-6.1 4.3-9.9 1.7-2.9 3.8-5.9 3.8-9.7 0.9-1.4 2.2-2.5 2-4.3 2-2 1.4-4.9 3.1-6.9 1.9-1.9 3.2-4.5 3.2-7.3 2.9-2.6 3.6-7.2 5.8-9.9 2.1-2.2 2.8-6.5 3.7-9.4 1.5-1.1 1.5-4.1 2.7-5.9 0.8-3.3 2.2-6 2.9-8.7 1.6-0.9 0.4-3.4 2-4.1 0-0.7 0.9-1.8 0.9-2.9 0.5-1.1 0.9-2.5 1.6-3.4 1.6-2.4 2-5.6 4.2-8.3 0.3-1.1 0.9-2.7 1.2-3.4 1.5-2 2.9-4.2 3.4-5.8 1.7-3.8 4.5-7 6.2-10.8 0.9-3.9 3.4-5.7 4.5-9.3 1.6-2.2 2.8-5.3 3.9-7.8 0.6-0.2 1.1-2 2-2.5 0.9-2.7 2.3-5.8 3.8-7.9 0-1.3 1.1-2.4 1.8-3.4 3-4.7 5.4-9.9 7.7-14.4h0.4c2.1-4.9 4.5-8.9 7.2-13.5-0.6-2.6 2.5-2.9 2.1-5.1 1.5-1.8 3.3-5.2 3.5-6.3 0.7-0.9 1.8-1.8 1.8-3 0.9 0.7 1.6-1.5 2.3-2.4 0.2-1.2 1.4-2 1.8-3 1.1-2.6 2.9-4.7 3.4-7.4 1.8-1.6 2.4-4.3 4.5-6.1 1.3-2.4 2.5-4.9 4-6.9 6.1-9.9 11.7-19.1 16.4-29.9 1.6-0.5 0.3-2.7 1.6-3.6 0.9-2.3-2.4-0.7-2.4-2.1-0.5-0.6-1.6 0.2-2.5 0.3-12.6-3.2-25.9-6.1-38.9-6.8 8-7.2 15.2-15.7 22.5-24.8 0.2-1.8 2.2-2.9 2.9-4.7 2-2.4 4-6.1 6.1-8.8 7.6-12.1 14.4-24.9 19.3-37.3 3.6-5.6 4.9-11.9 7.7-17.6 0.6-4.2 3.1-7.1 3.1-11.6 1.4-1.2 0.5-3.8 2-5 1.1-5.9 3.4-10.6 5-16.8 1.5-5 2.7-10.2 3.3-15.3 1-1.9 1.4-4.6 2.1-7.2 2.5-10.4 4-23 5.4-34-0.3-1.6 0.9-3.8 0.7-5.4 1.1-5.7 0.6-10.8 1.3-15.8-0.4-6.1-0.7-12.4-1.3-18.4 0.8 0 2.4 0.2 2.6-0.2 0.5 0.8 1.4 0.6 2.1 1z"/>
<path class="s0" d="m794.7 496.1c0 0.6-0.6 1.8-1.3 2.2-6.8 11.5-14.4 21.6-20.3 32.9-2 4-5.3 8.1-6.5 12.3-6.3 10.6-12.8 20.3-17.5 31.3-6.6 11.9-12.8 23.2-18.7 35.3-2.3 5-5 10.1-7 15.3-0.9 1.1-2 2.7-2 4.1-4 6-7.4 13.9-10.8 20.9-0.4 2.9-2.3 4.8-3.2 7.6-0.8 2.7-1.8 5.2-2.4 7.5-2.3 2.5-3.2 6.3-4.3 9.4-2.2 3.9-4.5 8.1-5.8 12.6-2.3 4.7-5 9.3-6.6 14.6-0.9 1.2-2.2 2.8-2 4.3-2.3 3.8-5.2 8.1-6.5 12.8-1.1 1.8-1.8 3-1.6 5.2-2.7 0.9-2.9 4.8-4.5 7.3-6.5 17.5-15.3 34.6-21.6 51.5-2.7 4.9-4.7 10.3-7 15 2.5-16 1.8-33 3.8-49-0.8-3.4-0.4-5.9 0-9.3-1.5-1.7 1.8-4.2-0.2-6 0-2 0.2-4.5-0.4-6.5 0-1.4 0.2-3.6 0.4-5.2-0.2-14-0.7-32.6-0.7-48.2-1.1-8.8-0.8-17.8-2.2-26.8 0-4.4 0.2-8.1-0.7-13 1.1-1.3-0.6-2.5-0.4-4 0.9-14.2-1.8-28.6-3.4-43.2-2.2-7-2-14.7-5.4-21.4-0.5-0.9-1.1-0.9-2-0.7-2.7 1.3-5.6 4.8-8.1 7.2-1.1 2-3.2 4.7-4.5 6.6-2.1 2.4-4.8 4.7-5.9 7.8-5.1 5.6-11.4 11.3-16.4 17.8-12.1 12.1-21.4 25-32.8 38.4-3.4-9.2-8.8-17.9-12.2-27-1.1-0.2 0-1-0.5-1.5-6-9-9.2-18.3-15.7-27-9-17.3-20.3-35.6-31.7-52-8.1-11-17.6-21.8-27.3-32.2 2.7-3.4 4.5-6.1 7-8.8 0.7 0 0.2-1 0.7-1.1 2.7-0.2 6.3-0.6 5.9 3.6 0.8 6.5 0 13.7 4 19 3.6 3.8 10.1 6.4 15.1 6 4.5-0.7 9.4-3.4 11-7.9 1.6-0.9 1.6-3.4 3.1-5.1-0.2-1 0.9-1 1-1.8 0.9-5.2 4.2-10 9.4-11.8 2.2-0.4 5.2-1.5 6.8 0.7 8.5 10.6-1.2 31.7 16.1 35.6 1.9 0 3.4 2.2 5.5 0.6 0.8 0.5 2 0.9 3.1 0.3 1.4-1.1 4-1.1 4.7-3.2 3-1.3 4.7-5.4 6.1-7.9 2.2-6 2.9-13 7.4-17.5 0.9-1.3 0.9-3.2 2.7-3.8 3.2-0.3 5.4 1.6 7.2 3.3 7.5 10.9 5.4 31.3 22.7 33.1 4.3 0.5 10-1.5 12.4-5.4 0.9-2.9 2-5.2 2.5-8.3 6.8 3.2 14.6 5.4 22 6.1 3.6 3.1 10.6-2.9 10.6 3.8 0.7 0.5 0.3 2 1.2 2.7 0.8 4.9 6.3 7.5 10.5 9.7 1.2 0.4 3.8 0.9 4.8 0.4 2.4-0.7 6-0.2 7.1-2.9 2.3-1.3 3.4-2.9 5.4-4.7 1-0.9 0.1-2.5 1.6-3.6-0.6-1.2 1.2-1.4 1.1-2.3 0-3.1 1.8-6.3 0.9-9.4 4.6-1.8 10.4-3.4 15.3-5.4 2.7-0.9 5.4-2.3 8.1-3.4 1.8 4.1-0.4 9.2 1.8 13.1 0.3 6.9 0.9 15.2 8.6 17.7 4.3 2.1 9.9 1.1 13.3-2.2 3.8-2.5 2.5-7.5 7-9.3 0-0.9 1.7-0.9 1.3-2-0.2-0.6-0.4 0.3-0.7 0.2 2.9-2 4.7-6.2 5-9 3.3-2 4.2-5.6 6.9-8.1 2.3-5.3 7.7-8.5 10.4-13.2 3.2-1.8 5.2-4.3 8.1-6.6 2.2-2.2 4.5-0.2 7 0.3 1.5 0.7 3.1 0.6 4.2 1.6z"/>
<path class="s0" d="m614.1 641.4c1.5 11.2 5.1 21.2 5.2 32.8 0.4 1.2 0 2.5 0.4 3.9 2.3 25.8 2.9 50.1 2 76-1.3 24.1-2.4 47.5-5.8 70.7 0.6 3.6-1.1 7.9-1.1 11.4-0.9-4.2-4.5-7.2-8.1-9.9q-3.2-0.9-6.4 0c-0.6-6.5-0.6-10.8-0.9-17.5 0.9-3.8-2.2-7.9-1.3-11.5-1.3-3.4-1.1-6.7-1.1-10.8-0.7-0.2-0.5-1.1-0.9-1.6 0.6-1.3 0.2-2.9 0-4.5-0.3-1.7 0.2-4.2-1.2-5.8 1.2-1.4-0.6-4.5-0.2-6.7-1.1-2.1 0.7-5-0.9-7.5 0-1.1 1.2-2.7-0.2-3.6 0.9-0.7-0.4-1.6-0.4-2.4-0.9-7.5-2.1-16.9-3.7-24.6-0.6-2.9-0.6-5.6-1.7-8.7-0.5-7-3.4-14.7-4.1-22.1-2-4.7-2.3-9.9-4-14.8 6.3-9.1 12.6-16.5 19.5-25.9 4.8-5.7 9.9-11.5 14.9-16.9z"/>
<path class="s2" d="m508.6 600.2c3.1 4.5 4.9 10 7.4 14.9 0.2 3.1 2.9 5.2 2.9 8.6-0.9 4 0.4 9.2-4.1 11.2-1.5 0.6-2.6 1.1-4.2 0.9-2.9-7-5.2-13.8-9.2-20.3 0.6-3.8-0.1-7.4 0-11.5 0-6.7 0.2-13-1.4-19.7 3.2 4.9 5.9 11 8.6 15.9z"/>
<path class="s2" d="m497.3 596.9c0.5 6-0.7 12.3-2.2 18.2-3.2 4.5-5.9 9.9-9.3 14.4-2.4-3-4.7-6.1-7.9-8.4 3-8.5 5.9-17.1 9.9-24.9 1.2-2.7 1.6-5.6 3.2-7.5 0.2-1.5 2-2.4 2.2-3.6 0.7-0.2 1.9 1.4 2.1 2.7 0 3.2 1.6 5.9 2 9.1z"/>
<path class="s2" d="m480.2 628.1c0.9 0.1 0.9 1.6 1.3 2.5-0.2 2 0.3 3.8 0.5 5.6-3.2 5.5-7.2 11.9-9.5 17.4-2.4 3.1-3.3 6.9-5.3 10.1-0.7-2.1-7.2-2.1-3.2-5.7 3.4-11 7.7-20.8 11.2-31.7 0.5-0.9 1.4-0.6 2.1-0.7 0.2 1 0.9 0.3 1.5 0.7 0.5 0.5 1 0.9 1.4 1.8z"/>
<path class="s2" d="m530.6 654.5c-0.5 3.1-2.2 6.2-4.7 8.1-2.7-0.3-6.6 1.5-6.6-2.7-2.2-6.3-3.3-12.9-6.5-18.7 3.9-2.3 7-6.6 9.2-10.6 2.1 8.3 6.1 16 8.6 23.9z"/>
<path class="s2" d="m536.4 669.5c0.3 1.2 0.7 2.7 1.9 3.4 3.3 12.2 1.5 25.4-1 36.9-1.3 0.5-3.1 8.3-2.7 2-0.6-2-1.1-4.3-1.5-6.7-2-4.5-0.3-9.9-3.9-14.4 0.5-4.3-3.5-7.2-2.9-11.7-1.3-3.8-2.9-7.4-3.8-11.3 1.8-0.7 3.8-1.8 5-2.9 2.7-0.9 3.1-3.2 4.7-5.4 1.8 3.4 1.8 6.8 4.2 10.1z"/>
<path class="s2" d="m464.9 666.1c1.1 4.1-2.7 7.1-3.1 11.1-2.5 5-3.6 10.8-5.7 16-1.5-0.9-3.4-2-2-3.9 0.4-1.6 1.6-4 2.2-6.1 1.6-4.9 2.1-10.1 4.1-14.8-0.5-1.8 1.6-2.3 1.4-4 1.3 0 2.4 0.6 3.1 1.7z"/>
<path class="s2" d="m631.8 579.1c1 12.8 3 26.5 5 39.4-0.9 2.6 0 6.3 0 9.6 1.1 3.4-2.5 6.1-3.6 9-0.7 1.2-2.2 2.9-3.6 3.2-2.5 0.7-4.9-0.3-7.2-0.7-0.4-2.7-1.4-5-1.6-7.6-1.5-1.8-0.9-5.4-1.3-7.7-1.1 0-1.6-0.7-2.5-0.4-1.1 2.2-2.9 2.4-4 4.3-0.3-2.6-2.5-5-3-7.7-1.1-4.1-3.4-8.1-6.3-11.1 2.5-1.1 4.8-3.8 5.9-6.9 1.6 0.2 2-2.5 3.4-3.2 0-0.9 1.8-0.6 1.5-2 4.5-4 7.9-9.4 11.3-14.2 0.9-1.5 2.7-2.2 3.8-3.6 1.4 1.1 0.9-1.5 2.2-0.4z"/>
<path class="s2" d="m603.5 616.7c2.7 4 5 8.3 5.9 13-1.2 8.1-9.1 13.7-13.6 20-1.8 1.4-2.6 3.4-4.4 4.7-1-6.3-3.9-13.7-9.9-17.7 1.5-2.5 4-4.8 5.3-7 1.6-2.2 5.4-7.2 6.8-7.6 2.5-1.4 4.1-6.3 7.4-6.6 0.3 0.9 1.6 0.9 2.5 1.2z"/>
<path class="s2" d="m581.5 641.4c2.7 1.6 4.7 5.2 4.2 8.3 0.7 3.9-0.4 9.2-1.5 13.3-3.7 4-7 7.7-10.2 12.2-1.5-0.7-1.5 1.5-2 2.2 0.4 1.4-1.4 1.8-1.8 3.1-1.6 3-4.1 4.3-5.8 7-1-7.2-2.3-14.6-8.2-19.5 1.9-3.4 5-5.4 6.4-8.4-0.3-0.7 0.9-0.4 1.1-1.1 1.1-1.8 2.7-3.8 4-4.5 0.9-4.3 4.7-6.3 6.5-9.4 1.9-1.6 3.4-3.4 5.7-3.2 0.4 0.4 1.1-0.7 1.6 0z"/>
<path class="s2" d="m555.1 672.7c2.1 2.9 3.8 7.2 4.3 11.2-0.2 3.4 0.9 8.1-1.1 11.5-7 9.7-14.6 19.6-20.9 29.9-0.9-1.1 0.9-1.8 0.9-2.9 0-4.9 2.4-8.8 3.1-13.3 1.1-5.8 2.2-12.4 2.5-18.4 0.2-0.2 0.4-0.3 0.4-0.5 1.1-2.9-0.6-7.4 2.5-9.2 0.2-1.3 0.5-2.2 1.1-3.3 2.1-1.7 3.4-3.5 5-5.7 0.6 0.5 1.6 0.9 2.2 0.7z"/>
<path class="s2" d="m454.5 696.8c-1.7 6.9-5.1 13-7.4 19.5 0.2-3.3 2.1-6.1 2-9.2 0.1-2.2 1.6-3.8 1-5.9 1.8-1.5 0.8-4.9 2.7-6 1.3-0.3 1.1 1.3 1.7 1.6z"/>
<path class="s3" d="m549.5 473.8c11 0.4 25.4 0 36.5 0 2 5.2 4.6 10.3 7.7 15 0.4 3.7 4.6 5.2 6 8.4 2.9 3.6 5.4 7.2 8.7 10.5 0.7 0 0.9 1 1.6 1.6 5 3.8 10.2 7 15.8 9.7-1.8 3.4 1.3 8.1-3.8 9.7-1.8 0.5-3.7 2.2-5.9 1.3-1.4-1.8-4.5-1.5-4.5-4.5-1.6-2.4-2.2-5.6-3.2-8.5-0.9-2.3-1.8-4.8-2.7-7.4-1.1-4.3-5.6-6.1-6.7-10.8-3.4-2.1-7.2-5.2-11.5-3-11.4 3.8-14.8 17.1-18.7 27-1.7 2.3-5.1 3.6-7.6 3.2-2.3-0.2-4.5-0.9-5.8-2.9-0.3-4.1-0.3-7.5-0.7-11.1 1.3-2.2-0.7-4.7 0-7.2-0.5-1.6-0.7-3.3-1.4-4.7 0.5-1.8-2.2-1.6-1.5-3.4-1.8-2.5-2.8-6.5-6.6-7-1.8-1-4.9-1.5-6.9-1.1-8.6 0.1-17.1 6.5-20.1 14.7-0.9 4.4-3.1 7.6-5.6 11.2-1.6 2-3.6-0.4-5.6 0.2-3.8-1.6-4.3-6.1-6.1-9.4 0.2-4.1 0.2-9.2-1.6-12.9 0.2-3.3-2.7-5.6-5.1-7.1-3.9-1.2-7.9-1.6-11.7 0.4-8.6 5.6-14.4 14.6-20.3 22.5-1.6 0.4-3.4 3.6-5.4 1.6-4.1-3.4-2.3-10.1-5.6-14.4 0.2-1.4-1.6-2.2-2-3.4-0.9-1.6-2.1-3.3-3.9-4-6-0.9-12.3 0.9-15.5 6.2-4.1 5.4-9.5 11.1-15.3 15.1-1.6 0.3-3.1-1.6-4.3-2.9-0.9-2.7 1.2-4.7 1.1-7.4-1.1-1.3 0.7-2.7 0.5-4.3 1.1-4 0.9-7.2 2.7-11 0.2-1.1 1.3-1.4 1.6-2.5 20-1.6 40.7-3.1 60.7-3.8 1.4-0.7 5.4 0 7.9-0.5 7.2-0.2 12.4-1.7 19.3-0.6 6.3-1.6 13.8-1.1 19.8-2.1 5.9-0.6 11.5 0.3 17.6-0.6 2.7 0.8 5.6 0.4 8.1 0.2z"/>
<path class="s4" d="m414.5 483.7c0.2-1.1 1.3-1.4 1.6-2.5 20-1.6 40.7-3.1 60.7-3.8 1.4-0.7 5.4 0 7.9-0.5 7.2-0.2 12.4-1.6 19.3-0.6 6.3-1.6 13.8-1 19.8-2.1 5.9-0.6 11.5 0.3 17.6-0.6 2.7 0.8 5.6 0.4 8.1 0.2 11 0.4 25.4 0 36.5 0 3 0 6.9 13 7.9 15.4-15.8 5.1-37.8-6.2-54.4-6.3-12.4-0.1-26.1-0.8-38.7 0.1-15.2 1-29.3 1.6-44.7 1-13.2-0.5-29.7-5.9-42.2-0.1"/>
<path class="s3" d="m774.3 490.2c1.8-0.9 3.8 0.5 5.2 1.3-14.4 9.1-23.7 23.9-31.8 38.3-3.3 3.8-5.8 9.9-11.7 8.5-9.7-3.8-3.8-16.6-7-23.6 0.1-2.2-1.3-4-1.1-6 2-0.3 4.3-1.8 5.7-2.8 6.7-4.2 12.6-9.2 17.7-14.4 3-6 9.9-1.3 14.4-2.4 3 0 5.7 0.7 8.6 1.1z"/>
<path class="s4" d="m733.8 505.8c3.2-2.2 6.4-4.4 9.5-6.9 2.3-2 6.6-4.7 8-7.5 3.1-5.9 9.9-1.2 14.4-2.3 3 0 5.7 0.7 8.6 1.1 1.8-0.9 3.8 0.5 5.2 1.3-14.4 9.1-23.7 23.9-31.8 38.3-0.4 0.6-1 1.2-1.5 1.8-1-2.1-3.3-3.2-4.3-5.3-2.3-4.5-1.2-10.2-3.7-14.4-0.3-0.4-5.5-5.4-4.4-6.1z"/>
<path class="s3" d="m691.5 526.9c-0.7 4.7-4.3 8.3-7 11.9-3.2 0.7-6.3 1.8-8.6-1.3-2.2-2.5-2-6.1-3.1-9 5.4 0.2 11.5-2.7 16.9-3.7 2.4-1.7 1.6 1 1.8 2.1z"/>
<path class="s3" d="m551.1 821.6c1.5 0.3 2.7 0 4.3-0.7 2.4-1.1 3.8-4.7 4-7.4 2-0.8 0.4-3.3 1.1-4.7 0.7-1.8 1.2-4 1.4-6.3 1.8-0.7 4.3-0.7 6.5-0.4 4.1 3.5 4.3 9.4 5.4 14.4 1.3 7.2 1.4 17.1 9.7 21.3 4 0.9 8.5 4.8 11.9 0.5 4.3-1.1 2.3-9.2 8.3-7.2 5.4 3.6 5.4 10.8 7 16.6-0.2 3.6 0.2 6.8-0.2 10.8-7-2.4-12.4-7.2-19.2-9.8-3.3-0.3-6-2.6-8.7-3-0.2-0.5-0.7-0.7-1.2-0.9-0.8 0.7-0.6-1.3-1.5-0.4-3.8-1.6-7.5-4.5-11.9-5.7-0.5 1-0.7-0.4-0.5-0.6-4.9-2.1-10.3-4.6-15.8-6.3-3.8-2.3-8.1-3.9-12.1-5.4-1.8-2.1-5-2.5-7.2-3.7 0-0.2-2-1.3-3.2-1.7-2.4-1-4.9-1.8-4.7-4.6-0.2-5.6-1.1-10.5 1.4-15.2 2-2.3 4 0.6 6 0.9 7.5 5.3 6.3 17.5 16.3 19.5 0.9 0.1 1.8-0.6 2.9 0z"/>
<path class="s5" d="m624.6 842.5c2.3-0.8 4.8 0.5 7-0.4-1.1 8.1-6.1 14.9-7.8 22.9-1.4-0.4-3-1.7-4.5-2.4-0.7-3.4 1.8-6.8 1.5-9.9 0.3-0.3 0.3-0.5 0.5-0.9-1.2-0.5 0.6-0.9 0.4-1.6-0.4-1.3 0.9-2.3 0-3.4 2-1.1-1.5-7 2.9-4.3z"/>
<path class="s6" d="m664 928.3c-7.8 2-14.6 5.4-22.5 7-1.3-0.9 0.3-1.9 0.5-3.2 2-1.3 3.3-3.6 4.9-4.5 2.5-2.5 5-4.7 7.2-7.2 3.4 2.2 6.6 5.4 9.9 7.9z"/>
<path class="s6" d="m663.8 959.3c1.4 5.6 2.3 12.8 6.1 17.3 3.1 5.7 7.8 11.3 14.1 14 1 1.1 0.5 3.4 0.1 4.9-1 5.5-1.6 10.8-2.8 16-9.2 0.7-15.3 5.9-22.5 11.3-4.4 2.7-7.2 6.9-10.1 10.6-1.8 2.4-5.2 5.1-6.1 8.5q-0.3 0-0.6 0c-7.7 11.2-12 22-15.6 35.1-0.4 3.1-0.9 6.3-0.4 9.4-3.2 3-6.5 4.5-9.9 6.4 0.7-1-1.6-1.9 0.2-2.5-1.5-2.5 0.3-4.5-1.1-6.8 0.5-4.7 0.7-9.9 0.9-15.5-1.6-1.8 1.1-3.4-0.2-5 0.6-5.8 0.6-12.1 1.5-18.4-0.4-2 0.1-3.2-0.2-4.9-0.6-4.5 1.1-7.7 0.9-12.4 0.5-3.9 1.2-7.7 1.1-11.9 0.7-1.6 0.1-3 1-4.6 0-3.1 1.5-6.9 1.3-10.5 0.2-1.8 1.1-3.8 1.6-5.7-0.7-2.4 1.5-3.1 2.7-4.7 4.2 0.2 9.6 1.2 14.2 1.4 8-0.5 18.2 1.3 25.2-1.4 1.1-2.7-2.5-3.3-2.5-5.8-1.6-1.1-0.3-2.9-2-3.8-1-3.2-2.8-6.4-3.4-9.5-1.6-3.6-3.6-7.2-3.4-10.8 1.8-2 4.7-1.3 7-2.9 0.4-1.1 1.5-1.1 2.5-1.2-0.3 1.2 0.2 2.3 0.4 3.4z"/>
<path class="s7" d="m775.4 191c19.8 2.9 35.6 19.7 43.7 37.7 4.4 9 6.2 19.6 8.7 29.1 1.1 9.4 3.2 19.6 2 28.8 0.1 2.7-0.8 6.5 0 9.4-0.9 1.6-0.6 3.6-1.1 5.4-0.6 6.1-2 13.3-1.5 18.9-0.9 1.9-0.3 5-0.7 7.4-3.6 20.3-7.5 39.7-14 59.9-4.2 9.2-7 17.5-11.7 26.1-11.5 23.4-24.9 45.7-43.9 63.5-7.8 7.2-16.2 14.1-24.7 20.4-5.9 4.5-13.5 7.5-18.9 11.7-4.9 2.9-10.3 3.8-15.7 5.9-2.8 0.7-5 2-7.7 2.5-11.2 3.1-21.4 6.3-33.5 5.6-5-0.5-10.2-2.3-14.9-4.1-3.4-0.9-6.7-3.3-9.9-4.2-2.2-0.9-4.9-2.1-6.9-3.6-2.5-1.6-4.6-2.8-6.6-5-3.6-2.9-7-6.5-9.7-9.9-1.7-1.4-2.4-4.1-4.2-5-2.3-2.4-3.2-5.3-5.6-7.6-0.9-1.4-1.9-2.9-2.1-4.5-2.7-5.4-4.7-11.7-6-17.1-2.1-2.2 0.4-5.6-2.5-7.7 0-3.1-1.1-6.4-1.6-9.6-0.7-2.7-1.8-6.1-1.1-9-0.2-2.3-1.1-4.7-0.7-6.6-1.4-5.6 0.2-11-1.1-17 0.4-6.6 2.7-12.9 1.8-19.4 1.1-0.5-0.2-1.4 0.6-2.2 1.4-12.7 6.1-24.6 8.4-35.8 1.3-2.2 1.8-4.5 2.7-6.7 1.6-5.5 3.3-10.2 5.1-15.3-0.8-1.4 1.6-1.6 0.9-2.7 1.8-3.2 2.1-6.4 4.5-9.8 1-4.2 2.5-5.5 4.1-9.4 2.9-4 4.5-8.1 7-12.4 4-9 9.9-17 16-25 0.8-2.6 3.1-3.5 4-6 2.2-0.5 2.9-3 4-4.3 1.4-1.3 2.1-4 3.9-4.7 1.3-0.7 1.1-3.4 3.1-3 0.5-1.1 0.3-2.4 2-2.4 3.9-4.5 8.1-10.3 12.9-14.6 4.3-3.2 5.6-6.1 10.3-8.8 2.3-2.5 5-5.7 8.3-7.6 0.7-0.7 1.9-1 2.3-2.1 12.1-8.5 25-17.3 39.2-22.2 11.2-3 21.1-9.3 32.8-8.4 5.8-0.2 13-0.6 18 1.4z"/>
<path class="s7" d="m409.1 330.2c0.7 0.7 2.2 1.2 2.3 1.8 1.5 0 2.9 2 4 1.2 0.2 2.2 2 0 2.5 2 1.1 0.2 3.1 0.9 3.6 1.8 1.6 0.7 3.4 2.2 5.4 2.9 1.3 1.1 4 1.3 4.9 2.9 5.9 3.6 11.9 6.5 17.8 10.2 0.5 0 0.7 0.2 1.1 0.8 6.5 3.2 11.5 7.3 18 10.2 9.5 5.2 18.5 12.4 28.1 17.1 2.5 1.3 4.8 2.7 6.8 4.5 5.8 3.6 12.2 6.1 17.6 10.6-1.4 2.2-1.4 5.3-3.2 7.2-5.2 10.8-11.2 21.3-17.3 31.4-2 3.2-3.9 6.4-6.3 9.7-1.4-0.9-3.8-0.7-5.4-1.1-7-0.5-14.2-1.8-21.6-2.2-2.1-0.1-4.3-1.6-6.6-0.9-3.1-0.7-6.2-1.2-9.6-1.2-2-1.1-3.8 0.2-5.7-1.1-2.4 0-4.5-1.3-6.7-0.5-1.3-1.3-2.7 0-4-1.3-5.9 0-12-2.3-18.3-3.1-0.4 0.9-0.9 0.2-1.3 0-2.3 0.8-4.7-1.2-6.3 0-3.6-1.6-7.2 0.4-10.4-1.6-2-0.5-4.2-0.3-6-1.2-1-6.2-2.3-14.1-2.1-20.4-1.1-1.1 0.2-2.5-0.6-4.1 0-3.1 0.4-6.1 0-9.4-0.7-7 0.6-12.6-0.1-19.4 0-0.6 0.1-0.9 0.7-1.1-1.5-1.8 1.1-3.1 0-4.7 1.4-2.3-0.2-3.8 0.5-6.5 0.7-1.9 0-4.1 1.5-5.7-1.3-2.5 1.2-3.6 0.3-6 1.5-2.3 0.6-4.8 1.8-7.5 0.2-2.7 2.2-4.9 1.6-7.6 0.6-1.1 1.7-2.1 2-3.4 0.2-2.3 1.8-4.5 2.9-6.7 0.2-0.7 0.2-1 0.7-1.6 2 1.6 4.9 3.1 7.4 4z"/>
<path class="s8" d="m612 928.3c-4 7.2-9.6 12.6-14.1 19.6-2 1.1-2 3.6-4.1 5.3 0.7 0.3-0.4 0-0.4 0.3-5.9 8.1-11.5 16.4-17.1 24.9-1.4 0.7-0.2 1.4-0.9 2.3-0.5 2.2-4.3 3.1-3 5.4 1.4 2 3.2-0.4 4.6 0.5 4-0.5 7.6 0 12.1 0.2 3.6-0.2 7.7 0.4 11.2 0.9 1.6-1.6 1.9 1.1 3.4 0.2 3.2 0.9 7.2-0.2 10.2 1.1 0.6 1.8-1 3.2-0.9 5.2-5.7 0-11.5-0.9-17.4-0.9-4.3-0.4-10.3-1.1-14.8-0.9 0 0.4-0.7 0-0.9 0.4-9.9-0.2-21 0.3-30.8 1.4 0.6-0.7 0.4-2 1.5-2 2.3-2.3 3.6-5.9 6.1-7.5 9.4-10.1 15.8-20.6 24.7-29.7 1.6-2 2.1-5.1 4.5-6.5 1.6-3.4 5.2-5.6 6.8-8.7h0.9c4.3-3.4 6.3-8.8 11.9-9.9 2.1-0.5 4.1-1.4 6.5-1.6z"/>
<path class="s8" d="m612.1 1001.2c0.8 0.7-0.5 1.3-0.1 2-0.9 3.2-0.8 7.9-1.5 11.7-0.9 7.6-2 15.5-2.5 23.6-15.7-1.6-30.1 0.9-46.8 0.3-10.6 0.8-21.8 1.8-32.2 3.3-2.9 0-5.4-0.2-8.1 0.9-3.3-0.2-8.1-0.6-11.7 0.2-0.6-0.4 0-1.3 0.3-1.1 2.2-2.9 4.7-5.6 6.5-8.9 7-7.1 13.2-15.8 19.6-24.2 1.3 0 2-1.8 2.2-1.8 4.5-6.3 12.6-6.9 19.1-9 7.9-1.7 18.5-2.9 26.6-2.4 7-0.3 14.4 1.3 20.9 2 2.9 0.7 5.2 2.2 7.7 3.4z"/>
<path class="s8" d="m558.9 1043.2c12.2-0.2 25.7-0.4 36.9 3 3.9 0.7 7.5 2.4 11.1 4.5-0.2 10.1-1.2 22 0 32.6-0.2 2.2-0.5 7 0.6 9.7-0.8 2.4 0.3 5.1 0.1 7.7-0.1 1.1 0.4 2.2 0.8 3.1-19.7-1.6-42.5-4.7-62-4.7-19-2.3-39.9-0.1-59.4 0-9.9 0.6-18.9 3.1-28.4 4.5-0.5-0.3 0-1 0.4-1 0.1 0.1 0.1 0.1 0.3 0.1 2.5-3.4 6-5.7 7.8-9.9 1.2-0.9 2.8-1.9 3-3.4 1.3-1.2 2.9-2.7 3.4-4.5 3.3-1.8 4.9-5.9 7.6-9 2-2.7 4.9-5 5.9-8.6 0.9-0.6 2-2.4 2.9-2.9 2-2.7 4.5-4.3 6.1-7.6 1.8-0.3 2.2-3 4-3.6 5.2-2.3 11.3-4.3 16.7-5.4 1.1-1.2 2.6 0 3.6-1.1 12.1-1.2 26-3.2 38-3.9 0.2 0 0.4 0.2 0.6 0.4z"/>
<path class="s8" d="m554.5 1104.5c0.4-0.5 1.3-0.1 1.3-0.1 6.1 1 13.1 0.5 18.5 1.8 4.9 0.5 8.3 0 12.5 1.8 2.1 0.1 4.3 0.5 5.9 1.2 5.4 0.5 10.6 2.9 15.7 5.4-0.4 3.3 1.6 5.6 0.5 8.5 1.3 1.2-0.4 2.7 0.5 3.6-0.3 1.8-0.3 3.6 0.4 5.4-0.2 0.1-0.4 0.3-0.4 0.5 1.3 6.3 0.8 13 2.7 18.6 1.8 3.9 0 7.7 2.4 11.5-0.6 2.1 1.2 3.9 0.9 5.9 1.8 9.2 2.1 18.2 5.6 26.6-1.3-0.1-2.4-1.2-3.6-0.8 0.3-1.5-1.3-0.8-1.8-1.5-2.2-0.2-4.2-2.5-6.9-2.2-0.5-1-1.8 0-2-0.8-3.4-1.3-5.9-1.8-9.5-3.1-13.1-3.4-25-5.4-38.9-7.9-0.5-0.4-0.5 0.5-1.1 0.3-21.9-3-44.1-5.5-67.1-6.8-7.6 0.3-14.6-0.2-22.5 0.5-8.3-1.9-18-1.4-26.3-1.2-7.2 1.8-18.7 0.2-26.1 2.1-2.3-0.5-5.2 0-7.5 0.4-2.7 0-4.4 0.9-7.1 1.1 0.6-0.2 0.9-0.4 1.5-0.6 9.9-12.9 21.6-27.1 31.3-39.4 0.4-0.3-0.2-1.2 0.7-1.2 4.9-5.1 7-10.5 11.5-15.4 4-1.9 7.2-5.7 11.2-6.8 6.5-3.9 13.5-4.8 20.9-6.8 18.9-1.6 37.4-2.9 56.7-2.2 7 0 12.9 1.1 20.1 1.6z"/>
<path class="s0" d="m443.1 1182.1c-23.2 18.7-43.4 42.7-64.8 62.3-2.5 2.7-4.3 5.2-7 7.5-2.5-1.6-1.1 3.7-1.6-0.1 3-4.2 5-9.6 7.2-14.4 1.2-0.6 1.2-2.4 1.8-2.9 2.3-2.5 3.4-5.6 4.7-8.6-0.9-1 1-0.6 0.5-1.3 2.2-1.8 2.2-4.5 3.8-6.7 1.4 0 0.5-1.2 1.4-1.8 2.7-3.6 4.9-7.7 6.7-11.8 1.6-0.8 2-2.7 3.2-4.2 0.9-2.1 2.7-3.8 4.2-5.9 1.6-2.4 3.9-4.3 4.8-7 1.6-0.4 2.2-2.2 3.3-2.9 9.9-0.6 17.2-2 26.1-2 0.3-0.9 0.3 0 0.9 0 1.4-0.5 3.2-0.2 4.8-0.2z"/>
<path class="s0" d="m595.8 1197.8c2.7 0.2 5.7 1.1 8.2 2.3 3.8 7.9 4 16.8 8 24.7 3 15.8 9.1 31.5 11.8 47.1 2.9 5.1 2.4 12.1 4.7 17.5-0.7 0.4-2 0-2.7 0.4-1.6-2.9-2.9-6.2-4.3-9.2-1.1-0.6 0.4-1.3-0.5-1.8 0.3-0.9-2.2-1.6-0.6-2.2-7-10.6-11.5-23-18.3-34-7.6-15.8-17.7-30.8-25.6-46.3 0.5-1.6-1.8-2.5-0.9-3.7 6.8 0.3 13.1 3.6 20.2 5.2z"/>
<path class="s9" d="m521.2 396.2c-1.4 2.2-1.4 5.3-3.2 7.2-5.2 10.8-11.2 21.3-17.3 31.4-2 3.2-3.9 6.4-6.3 9.7-1.4-0.9-3.8-0.7-5.4-1.1-4.8-0.4-9.8-1.1-14.9-1.6q1.1-1.4 2.1-2.7c2-2.3 3.9-4.9 5.4-7.7q0.1-0.1 0.2-0.3c0.2 0.1 0.4 0.1 0.6 0.2 3.6-0.5 7.2 2.4 10.6 0.4 2.9-0.2 3.2-2.7 3.8-4.7-0.6-2.7-3.1-4.7-5.4-5.9-1.4-1.1-3.2-2.1-5.1-2.8 0.5-1.5 1.1-3 1.5-4.5 1.6-5.9 2.8-11.7 4.4-17.5 0.7-2.8 1.5-5.6 1.9-8.4 0.3-1.6 1-3.1 1.3-4.7 0.2-0.8 0.3-1.7 0.3-2.6q0.5 0.2 1.1 0.5c2.5 1.3 4.8 2.7 6.8 4.5 5.8 3.6 12.2 6.1 17.6 10.6z"/>
<path class="s9" d="m827.2 320.3c-0.9 1.9-0.3 5-0.7 7.4-3.6 20.3-7.5 39.7-14 59.9-4.2 9.2-7 17.5-11.7 26.1-11.5 23.4-24.9 45.7-43.9 63.5-7.8 7.2-16.2 14.1-24.7 20.4-5.9 4.5-13.5 7.5-18.9 11.7-4.9 2.9-10.3 3.8-15.7 5.9-2.8 0.7-5 2-7.7 2.5q-1.8 0.5-3.7 1c-24.5-6-21-60.1-20.5-65.4 1.1-14.1 11-46.7 13.4-55.7 11.3-5.5 21.9-12.5 31-20.3 12.7-11.8 25-24.5 35.1-38.5 1.2-1.4 1.8-3.6 2.8-5 6.9-9.9 11-21.5 14.8-33.1 0.9-3.3 1.4-6.9 2.2-10.3 1.2-2.7 0.7-6.1 2.1-8.8 1.6-7.4 0.4-14.8-0.9-21.6-1.2-1.5-0.7-3.1-2.3-4 0.5-2.3-2.2-3.4-2.7-5.6q-0.9-1.2-1.8-2.6c11.6-7.8 32-20.8 40.9-15.8 14.2 7.9 19 23.9 21.4 33.3 0.8 3.2 4 22.7 5.2 32.7 0.3 3.3 0.7 6.5 1 9.8-0.5 4.4-1 8.8-0.7 12.5zm-93.9 144.2c0.9-4.2-2-6.2-4.7-8-1.6-1.2-3.6-1.6-5.4-2.3-1.3-0.7-2.5 0.5-3.6-0.5-1.4 0.3-4.1-1.1-4.7 0.9-2.7 0-4.7 2.3-7.5 3-2.4 3.3-7.2 3.1-9.4 6.9-3.2 1.6-4.3 3.9-6.8 6.3 0 2.8-3.8 1.8-3.6 4.8-1.3 0.6-0.9 2.5-2.6 2.7-1 3.4-2.8 6.9-2.8 10.6-0.6 1.8 0.9 2.6 0.3 5.1 1.6 0.7 1.5 4.3 3.8 3.6 3.2 3.9 9 1.6 13.1 2 1.8-1.1 4-1.7 5.8-2 1.1-1.3 3.1-0.9 3.8-2.2 8.6-3.9 16.2-10.8 21.9-18.5 0.6-1.3 0.8-3.1 1.7-3.8 0-2.7 2.7-5.8 0.7-8.6z" fill-rule="evenodd"/>
<path class="s10" d="m456.8 842.6c0 1.6-1.8 2-2.9 2.7-5-1.8-9.5-6.4-13.7-10.2 0.4-1.1 1.8-1.8 2.4-2.9 4.5 3.8 9.7 6.5 14.2 10.4z"/>
<path class="s10" d="m470.3 853.1c3.6 2.5 7 5.4 10.6 7.9 0.7 2.2-2.1 1.4-3 2.2-2.2 1.4-4.5 0.3-6.7-0.2-1.4-2.4-4.3-3.3-5.9-4.9-0.4-0.9-0.8-0.4-1.3-0.7-1.8-3.6-5.2-5.6-8.3-8.7 0.6-1.7 2.7-1.4 3.8-3 3.4 2.3 7 5.2 10.8 7.4z"/>
<path class="s10" d="m509.5 879.9c0.6 1.6-1.6 3.4-2.1 4.9-2.5 0.9-4.5 2.7-7.4 2.7 0-2.2-3.1-1.3-3.2-3.3-1.7-2-3.8-3.4-5.8-4.8-0.7-1.7-2.9-2.7-4.3-3.8-2.9-2.9-6.7-5.1-9.4-6.7 0.2-0.3 2-0.9 2.7-1.6 3.1 0 4.2-5.9 7.4-2.3 8.1 3.4 14.6 10.8 22.1 14.9z"/>
<path class="s10" d="m524.3 890.5c2 1.8 5.2 2.9 7 4.9 1.5 2 7.4 2.8 3.6 6.1-2.9 4.1-8.6 4.5-13.3 3.8-1.1-1.8-3.8-2.4-4.9-4.5-2.5 0.5-2.1-2.5-3.7-3.1-2.6-2-5.3-3.4-7.8-6.1 1.6-1.6 3.8-3.1 5.6-4.7 1.3-1.1 2.7-2 3.8-3.2 3.2 2.1 5.9 5.4 9.7 6.8z"/>
<path class="s10" d="m545.9 904c1.4 1.1 3.2 2.5 4.7 3.3-0.4 0.9-2.2 1-2 2.7 4.9 2.3 9.7 3.7 14 6.1-0.3 6.3-6.8 7.2-11.3 9-1.8-0.6-5.4 1.2-6.3-1.1-5.4-2.2-7.9-8.1-12.8-10.6-0.5-1.3-1.4-2.2-2.5-2.7 3.8-2.5 7.6-6.1 10.3-9.7 2.1 0.5 3.7 2.5 5.9 3z"/>
<path class="s10" d="m574 924.2c1.4 0.3 3 1.8 4.7 1.6 1.8 2.3 5.2 2.7 7.3 4.3 1.1 0.6 2.4 1.6 3.6 2.2-3.2 5.4-10 10.9-14.7 15.1-2.7-2.9-4.9-4.3-8.3-6.5-1.8-2.3-4.1-3.8-6.5-5.7-0.3-0.2-1.2 0.3-0.9-0.4-1.4-2.3-4.3-2-5.6-4.7 4.5-3.2 9.4-5.7 11.9-11.3 2.7 1.6 5.8 3.4 8.5 5.4z"/>
<path class="s10" d="m811.8 883.1c-8.7 3.5-15.5 8-24.5 10.6-3.3 1.3-7 4-10.3 0.8-0.5-0.8-1.6-1.6-1.6-2.7 3.6-2 8.1-4.2 12.4-5.1 1.5-0.5 2.5-0.9 4.2-1.6 2.3 0.2 4.3-2.1 6.8-2.1 0.7-1.5 2.2-0.4 3.1-0.9 2.3-1.7 5.2-2 7.5-3.3 0.6 1.4 2 2.7 2.4 4.3z"/>
<path class="s10" d="m772.5 895.9c0.2 1.5 1.1 2 1.6 3.4-10.2 4.5-20.5 8.1-31.1 12.8-2.3-0.3-5.8-0.3-7.7-1.8-0.4-0.9 0-2.1-0.2-3.2 1.2-1.6 4.3-1.3 6.1-2.4 4.9-2.1 9.7-3.7 14.4-6.1 2.7 0 3.4-1.6 6.1-1.6 3.3-1.6 5.4-2.2 8.7-3.8 1.2-0.2 0.7 2.4 2.1 2.7z"/>
<path class="s10" d="m735.1 916.1c-10.8 5.6-22.2 9.5-32.8 15.1-3.8 0-6.6 4.5-10.4 2.7-2 0-4-0.7-5.2-2.2 0-1.4-0.9-4.3 0-5.9 4.8-4 11.3-2.9 16.2-6.7 1.6 0 8.8-4.3 11.5-4.3 0.5-0.5 1.6-0.7 2.3-1.1 3.6-0.9 7.9-2.5 11.2-4.5 0.3-1.2 1.2 0.6 1.6-0.7 3.8 0.9 1.8 6.3 5.6 7.6z"/>
<path class="s10" d="m682.9 927.8c-0.4 3.8-0.9 7.7 2.1 10.2q0 0.3 0 0.6c-4.3 2.1-9.1 3.8-13.3 5.4-6.6 2.3-13.1 5-19.6 7.5-1.4-0.1-3.2-1.9-4.3-3.6 0.7-2.3-1.6-5 0.5-6.6 2-0.6 4-1.1 5.4-2.7 1.6 0.5 3.4-0.9 5.4-1.3 1.6-1.2 4.3-1.1 6-2.5 2.3 0 3.4-2.2 5.9-2 3.8-1.6 7.7-3.9 11.9-5z"/>
<path class="s10" d="m644.2 942.9c-0.7 2.9-0.7 7.2 1.6 9.5 0.2 0.4 0 0.9 0 1.5-7 3.8-14.8 6.5-21.6 11.5-1.6 0.2-6.1 2.9-3.4-1.3 1.1-3.4 2.1-5.9 3-9.3 2.6-2.7 1.8-8.7 7.2-8.8 0.4-1.3 2.2-0.4 2.9-1.8 1.3 1 2.5-0.6 4-0.2-0.2-1.1 1.1-0.9 1.2-0.2 2.4-0.2 2.6-1.6 5.1-0.9z"/>
<path class="s10" d="m685.2 982.9c-7.7-4.2-15.3-9.9-16.4-19.3-1.8-2.7-1-5.6-1.6-8.8 0.6-1.6 2.9-1.1 4.2-2.2 2.7-2.5 7.3-2.5 10-5.2 3.8 10.4 4.5 23.9 3.8 35.5z"/>
<path class="s10" d="m678.6 1021.2c-7.1 16.7-16.8 33.1-31 45.9-4.7 3.4-8.5 9.2-13.7 12.4-0.7-3.4 0.6-6.8 0.7-10.4 0.4-1.5 0.9-3.6 1.3-5.4 3.4-14.2 12.8-25.8 22.5-36.6 3.4-3 8.5-5.2 12.2-7.4 3.5 0 5.3-1.9 8.7-1.7 0 1-0.7 1.9-0.7 3.2z"/>
<path class="s10" d="m676.4 893c-5 5.1-11.3 8.3-15.8 14.3-5.6 4.3-13.4 8.8-17.3 14.2h-0.9c-2 2-3.1 3.2-4.9 5-2.5-5.6-4.7-11.5-7.4-16.2-2.8-1.4-3.9 1.3-5.2 3.1-3.4 4.1-7.7 7.9-11 12.2-2.1-0.7-4.8-0.4-7.5-0.2-3.6 1.3-7.6 1.5-10.5 4.3-1-2.1-2.7-1.9-4.5-3.5-1.8 0.9-0.9-2-2.3-0.9-1.1-1.3-2.9-2.9-5-2.7-2.6-3.3-6.2-4-9.6-6.9-4.8-1.8-9.3-5.2-14.7-6.3 3.9-0.7 9.3-1.1 13.5-2.1 5.5-1.1 8.8-2.7 14.2-3.1 1.2-1.4 4.7-0.5 6.8-1.4 13.3-1.3 28.1-4.4 41.2-5.1 11-2.7 24-1.6 35.5-3.9 1.6 0 3.2-1.1 5.4-0.8z"/>
<path class="s10" d="m633.6 936.4c-2.6-1.4-4.7 1.8-6.9 2.7-8.1 10.5-11 23.4-13.5 36.4 0.6 0.7 0.7 1.6 1.3 2.1 1.1-2.1 3.2-2.1 5.2-2.8 3.8-0.6 6.1-4.4 10.4-4.4 5.3-2.1 10.3-4.6 15.5-6.3 3.3 6.3 5.8 13 8.1 19.7-10.8-2-22.1-1.5-32.9-1.8 0 0-0.4-0.2-0.4-0.4-7.2 0.9-14.7-0.9-21-0.4-3.5-1-8-0.9-11.4-0.9-2-0.1-4.3 0-6.3 0.6-0.3-0.9 0.6-1.6 1.3-1.8 2.7-2.9 5.2-5.8 6.6-9 1.1 0.5 1.5-0.7 1.7-1.3 6.4-7.9 11.7-15.6 17.6-23.2 0-1.8 1.8-1.6 2-3.1 2.3-1.4 0.9-4.5 3.4-5.5 0.4-0.6 1.3-0.9 1.6-1.8 0.9-1.7 3.3-4.5 3.8-6.5-0.4-0.7 0.5-0.4 0.9-0.4 0.2-2 2.9-3 2.2-5 0.1-0.2 0.3-0.7 0.7-0.2 1.2-1.1 1.4-2.9 2.5-4.1 3.1 5.4 4.1 12 7.6 17.4z"/>
<path class="s10" d="m723.2 454.2c1.8 0.7 3.8 1.1 5.4 2.3 2.7 1.8 5.6 3.8 4.7 8 2 2.8-0.7 5.9-0.7 8.6-0.9 0.7-1.1 2.5-1.7 3.8-5.7 7.7-13.3 14.6-21.9 18.5-0.7 1.3-2.7 0.9-3.8 2.2-1.8 0.3-4 0.9-5.8 2-4.1-0.4-9.9 1.9-13.1-2-2.3 0.7-2.2-2.9-3.8-3.6 0.6-2.5-0.9-3.3-0.3-5.1 0-3.7 1.8-7.2 2.8-10.6 1.7-0.2 1.3-2.1 2.6-2.7-0.2-3 3.6-2 3.6-4.8 2.5-2.4 3.6-4.7 6.8-6.3 2.2-3.8 7-3.6 9.4-6.9 2.8-0.7 4.8-3 7.5-3 0.6-2 3.3-0.6 4.7-0.9 1.1 1 2.3-0.2 3.6 0.5z"/>
<path class="s10" d="m422.6 347.8c2.7 1.6 5.4 2.2 8.1 3.8 5.9 3.6 10.4 8.3 15.7 13 3.9 5 8.8 10.6 9.7 17.4 1.4 2.3 0 5.8-1.5 7.9-0.5-0.2-0.9 0.4-1.4 0.6-0.2 1.4-2.3 0.7-2.9 2-3.2-1.3-6.6 0.5-10.1-1.1-2.5-0.6-4.6-1.7-7.3-2-2.6-0.2-3.1-3.2-5.6-2.7-2.4-1.6-4-2.9-6.7-4.3-2.5-2.4-5.9-4.2-7.7-6.7-3.1-1.4-5.1-4.9-7.2-6.8-0.2-2.2-2.4-3.6-3.1-5.6-0.5-4.9-0.3-9.6 2.4-13 5.4-2 11.3-5.2 16.9-2.1 0.3 0 0.3-0.4 0.7-0.4z"/>
<path class="s10" d="m710.1 377.3c-9.1 7.8-19.7 14.8-31 20.3-4.6 2.2-9.3 4.3-14 6-3.1 1.1-6.5 0.4-9.2 2-1.6-0.2-2.9 0-4.2 0.5-3.2-0.7-5.5 0.9-8.6-0.5-0.5-0.2-0.4 0.9-0.7 0.2-3.1-0.9-6.5-1.3-8.5-4.2-1.6-2.7-5.4-4.6-5.7-8.1-1.8-0.5-1.8-3-2.6-3.9 0.6-1.8-3-2.9-1.8-4.5-1.8-1.1-0.1-3.4-1.4-4.5 0.5-2.2-1.1-4.9-0.4-6.5-1-4.7-1.4-9.2-0.7-13.5-1.6-3.4 1.1-6.5 0.2-9.9 1.4-2.5-0.4-6.1 2.2-7.7-0.6-1.8 0.5-4.2 1.6-6 0.2-2.9 2.9-6.7 3.8-9 1.6-1.3 1-4.1 3-4.7 0.4-2.5 3.3-3.8 3.4-6.5 1.5-1.6 2.6-3 3.5-4.8 2.8-2.2 3.9-5.4 6.4-8.5 2.7-3.8 5.3-8.6 8.3-12 2.9-2.5 4.9-5.8 7.6-8.8 1.2-2.4 3.4-3.5 5.4-5.5 0.7-3.2 3.9-4.1 5.9-6.2 0-1.8 2.7 0 1.8-2.2 4.9-3.8 8.5-8.8 13.9-12.3 1.8-1 3.2-3.4 5.6-3.9 1.4-0.7 3-2.7 4.8-3.1 2.9-2.7 6.5-4.3 10.3-5.9 1.1-1.4 3-1.8 4.5-2.2 3-1.1 5-3 8.6-3.4 3.8-0.2 7.8-1.4 11.7-1.6 1.5 0.5 3.1 0 4.7 0.9 1.8 0.9 2.9-0.4 4.9 0.7 2.7 0.7 5.7 0 7.5 2.3 4.2 0.9 6.3 4.2 8.5 7.5q0.9 1.4 1.8 2.6c0.5 2.2 3.2 3.3 2.7 5.6 1.6 0.9 1.1 2.5 2.3 4 1.3 6.8 2.5 14.2 0.9 21.6-1.4 2.7-0.9 6.1-2.1 8.8-0.8 3.4-1.3 7-2.2 10.3-3.8 11.6-7.9 23.2-14.8 33.1-1 1.4-1.6 3.6-2.8 5-10.1 14-22.4 26.7-35.1 38.5z"/>
<path class="s10" d="m482.4 431.3c-0.2-0.1-0.4-0.1-0.6-0.2-1.5-0.6-3.2-0.8-4.8-1.6-3.1-1.6-5.8-3.4-6.3-7.2-0.6-1.2 0.5-2.8 1-4.3 3.5-1.3 7.6-1.1 10.8-0.7 1.3 0.2 2.6 0.5 3.8 1 1.9 0.7 3.7 1.7 5.1 2.8 2.3 1.2 4.8 3.2 5.4 5.9-0.6 2-0.9 4.5-3.8 4.7-3.4 2-7-0.9-10.6-0.4z"/>
<path class="s11" d="m545.2 360c-1.1 0.2-1.1 1.8-1.5 2.8-2.8 11.8-6.4 23.2-13.1 33.3-4.3-1.8-6.1-4.7-10.1-6.5-2.5-1.5-4.8-2.4-7.2-4.2-2.1-0.9-4.7-3.4-7-4.3-3.4-1.4-6.1-4-9.9-5.2-0.5-2.3-4.1-2-5.2-4.5-1.3-0.4-1.8-2-3.3-2.3-4.1-1.3-7-4.9-10.9-6.3-0.9-2.6-4.4-2.6-5.8-4.6-1.1-0.5-2.2-1.4-3.1-2.1l0.1-0.6c6.4 0.4 19.7 7.5 22 8.3 4.1 1.9 9 2.9 13.1 5.1q3.4 1.8 6.7 3.6c5.8 3.3 11.2 6.5 15.8 9.1 9.3-5.7 12.5-16.1 19.2-23.8-0.1 1.4 0.2 2.2 0.2 2.2z"/>
<path class="s11" d="m487.3 457c-1.9-0.2-3.9 0.1-5.8-0.1-2.2-0.2-3.8-0.7-6.1-0.7-6.4 0-12.9-0.3-19.4-0.4q0.3 0.1 0.5 0.1-13-0.9-26-2-4.8-0.5-9.6-0.9-0.4-0.1 0.1 0c-4.8 0-9.2-0.2-13.6-1.2-1.4-0.3-2.9-0.8-4.3-1.1q-0.4 0-0.8 0 0.7-3.1 1.2-6.2c0.6-2.4 2.4-2.2 2.5-4.5 10.8 1.1 20.7 0.3 31.2 2.1 14.7 1.5 27.2 5.3 42.1 6.2 0.2 0.9 1.6 0.1 1.8 0.7 4.7 1.2 9.5 2.8 14.2 2.2 0 1.9 0.1 3.8-0.4 5.8-2.5 0.9-5.2 0.2-7.6 0z"/>
<path class="s11" d="m872.6 506c-10.6 11.4-22.7 24.3-31.5 37.5-14.4 18.7-28.8 37.6-42.1 56.9-8.3 12.6-16.2 24.3-24.9 36.5-4.3 6.5-9.1 14.2-13.3 20.9-2.7 2.9-4.8 6.8-6.6 10.2l0.1 0.2c-4.8 4.9-8.1 11-12 16.2-8.7 12.4-17.1 25-24.3 38.2-3.1 3-6 7.9-8.5 11.7-0.7 2.5-2.3 5-3.6 7.7-0.9 2.9-3.8 4.2-4.1 7.2-1.6 2.5-2.2 4.9-4.2 7.6-5.2 10.2-11.8 20.3-17.8 29.7-3.2 4.8-5.9 10.4-8.8 15.5-0.5 0.1-0.9 1.6-1.6 2.3-11.7 22.3-20.2 46.3-31.2 69.1-1.6 1.3-1.2 3.6-2.5 4.9 0.4 1.6-1.1 2.9-1.4 4.3-0.6 3.4-3.2 5.9-3.1 9.4-2.5-0.1-4.8 0.5-7.2 1q-2.5 0.6-4.9 1.1-0.5 0-1 0-0.2 0.2-0.5 0.3t-0.7 0.2c-0.4 0-0.7 0-1.1 0.2q-0.2 0.1-0.4 0.1c-2.1-1-3.7 0.8-5.8 0.3q-0.2 0.2-0.3 0.2c-1.9-3.4-2.6-7.5-4.6-10.9-2-3.5-4.6-7.2-6.5-10.6-3.9-7.4-7.6-13.8-12.7-19.9 10.6 5.4 21.1 10.6 32 15.1 2.2 1.1 4.5 2.2 7.1 3.1 1.2-1.5 4.5 0.9 4.8-2 2.2-5.1 2.9-10.6 5.2-15.7 0.9-5 3.1-9.7 5.1-14.4 0.9-3.2 1.4-6.3 2.7-9-0.2-2.5 1.2-4.7 0.9-7 2.1-4.3 2.7-9.5 4.3-14.2 1.3-3.1 1.8-6.9 3.6-9.9 2-4.2 2.2-9.4 5-12.8-0.1-2.9 2.9-5.2 3.3-8.6 2-3.5 3-5.3 4.3-8.9 2-1 0.4-3.2 2.3-3.7 1.3-2.7 1.8-5.4 4-7.6 1.3-4 2.3-8.5 4.9-11.9 0.1-2.5 1.8-4.7 2.5-6.8 1.2-1.3 0.7-2.7 2.3-4 0.7-3.8 3.6-6.1 4.3-9.9 1.7-2.9 3.8-5.9 3.8-9.7 0.9-1.4 2.2-2.5 2-4.3 2-2 1.4-4.9 3.1-6.9 1.9-1.9 3.2-4.5 3.2-7.3 2.9-2.6 3.6-7.2 5.8-9.9 2.1-2.2 2.8-6.5 3.7-9.4 1.5-1.1 1.5-4.1 2.7-5.9 0.8-3.3 2.2-6 2.9-8.7 1.6-0.9 0.4-3.4 2-4.1 0-0.7 0.9-1.8 0.9-2.9 0.5-1.1 0.9-2.5 1.6-3.4 1.6-2.4 2-5.6 4.2-8.3 0.3-1.1 0.9-2.7 1.2-3.4 1.5-2 2.9-4.2 3.4-5.8 1.7-3.8 4.5-7 6.2-10.8 0.9-3.9 3.4-5.7 4.5-9.3 1.6-2.2 2.8-5.3 3.9-7.8 0.6-0.2 1.1-2 2-2.5 0.9-2.7 2.3-5.8 3.8-7.9 0-1.3 1.1-2.4 1.8-3.4 3-4.7 5.4-9.9 7.7-14.4h0.4c2.1-4.9 4.5-8.9 7.2-13.5-0.6-2.6 2.5-2.9 2.1-5.1 1.5-1.8 3.3-5.2 3.5-6.3 0.7-0.9 1.8-1.8 1.8-3 0.9 0.7 1.6-1.5 2.3-2.4 0.2-1.2 1.4-2 1.8-3 1.1-2.6 2.9-4.7 3.4-7.4 1.8-1.6 2.4-4.3 4.5-6.1 1.3-2.4 2.5-4.9 4-6.9 6.1-9.9 11.7-19.1 16.4-29.9 1.6-0.5 0.3-2.7 1.6-3.6 0.9-2.3-2.4-0.7-2.4-2.1-0.5-0.6-1.6 0.2-2.5 0.3-12.6-3.2-25.9-6.1-38.9-6.8 8-7.2 15.2-15.7 22.5-24.8 0.2-1.8 2.2-2.9 2.9-4.7 2-2.4 4-6.1 6.1-8.8 7.6-12.1 14.4-24.9 19.3-37.3 3.6-5.6 4.9-11.9 7.7-17.6 0.6-4.2 3.1-7.1 3.1-11.6 1.4-1.2 0.5-3.8 2-5 1.1-5.9 3.4-10.6 5-16.8 1.5-5 2.7-10.2 3.3-15.3q0.4-0.8 0.7-1.8c0.2 0 0.4-0.1 0.5-0.1 0.8 2.3-0.7 6.3-0.8 8.9-0.1 3.2-0.6 6.1-1 9.2-0.8 6.5-2.1 12.3-3.8 18.8-3.1 12.3-5.3 25.4-10.4 36.9-3 6.8-5.5 9.6-8.8 16.1-3.4 6.7-7.8 16.2-11.8 22.3-5.6 8.7-8.9 19-12.1 28.5 4.3-1.7 10.4-6.6 13.9-9.8 5.9-5.4 15.2-14.2 21-20l20-20 10-11v-37c0-11.5-1-20-4-34.7 2.1 3.9 6.4 8.6 7 12.7 0.8 5.2 8.1 40.6 8.2 44.7 3.2-4 2.5-17.3 1.9-22.7-1.1-9.1-2.1-18.4-2.1-27.9 0-9.6 0.8-12.8-1-22.1-1.7-9.1-1.6-25.8-2.9-35.1-1.2-8.2-3.6-16.9-6.4-24.9-1-3.1-4.8-7.7-2.7-10.5 1.1 0.3 2.1 0.5 3.6 0.5 2 4.3 2 9.6 5.1 13.5 1.4 7.4 3.6 15.2 6.1 22.3 0.9 1.7 0.9 4 1.8 5.5 1.1 8.6 4.7 16.3 5.2 25 0 2.1 1.5 2.9 2 4.5-0.9 2.7 1.4 5.2 1.1 7.9 1.8 2.1 0.7 6.1 2.5 8.1 0.2 2 0.4 4.3 0.7 6.5 1.5 2.7 0.6 4.7 1.5 7.5 0.3 0.9 0.7 2 0.7 3.1 0 1.4 0.7 2.5 1.4 3.9 6.3 23.1 7.4 48.1 14.2 71.5 0 11.2 3.3 21.6 4 32.6-0.5 1.8-0.2 2.9-0.2 4.7-6.5 10.4-16.2 17.6-24.1 26.4z"/>
<path class="s5" d="m638.2 640.5c0 0.7-0.5 1.3-0.3 2.2 1.2 12.4 1.8 24.3 2.1 36.1-0.1 2.9 0.2 6.7 0.2 10.5-2 2.7-2.7 6.4-6.3 7.4-0.7 1-2.3 1.6-3.9 1.2 0-2.2-0.9-4.1-1.1-6.1 0.5-1.4 0.5-3.1 0-4.7-0.6-4.5-0.2-8.4-0.9-12.9 0.5-0.6 0.2-1 0-1.5-1.6-6.6-0.2-13.7-3.1-20.1-0.5-2.4-0.2-5.6-1.4-8.1 4.1-1.8 10.8-0.2 14-5.6 0 0.3-0.2 1.8 0.7 1.6z"/>
<path class="s5" d="m640.8 733.2c-1.8 4.3-3.1 11-8.5 11.5-0.9-0.3-1.8-0.5-2.7-0.7-0.9-2.5 0.9-4.7-0.4-7.2 1.5-1.3-0.7-4.5 0.9-6.8-1-2.9 0.2-6.9-0.1-9.9-0.6-5.6 0.9-10.3 0.3-16.1-0.7-0.5 0-0.9-0.2-1.8 1.5 0.4 4-0.5 5.4-1 1.7-1 3.5-2.2 4.5-3.5 0.2 11.9 0.4 24 0.8 35.5z"/>
<path class="s5" d="m641.1 745.3c-0.2 15.4-1.2 31.6-2.3 46.4-2.9 2.7-6.1 4.7-9.9 5-1.1-0.5-2.4-1.8-2.9-3 0.2-1.6 0.7-2.2 0.7-3.4 1.3-4.5 0.6-10.7 1.5-15-0.8-4.1 0.9-9.3-0.2-13.3 1.1-1.4 0-2.2 1.1-3.8-1.3-3.4 1.4-5.9 0.1-9.5 2.7 0.5 5.8-0.6 8.5-1.6 1.6 0 1.8-1.8 3.4-1.8z"/>
<path class="s5" d="m637.7 802c-1.1 1.2 0 3-1.1 4.3-0.9 9.7-2.5 19.9-3 29.7-0.2 1.4-1.8 2.3-2.9 3.2-1.8 0.2-4.3 0.7-5.8-0.3-2.9-1.3-0.9-3.5-1.8-5.4 1.1-1.5-0.2-3.1 0.9-4.4 0-9.1 2.9-17.2 1.6-26.1 0.8-1 0.2-1.6 0.4-2.8 4.7 0.7 7.7-0.9 11.7-2.4 0.4 1.1-0.7 2.7 0 4.2z"/>
<path class="s5" d="m633.2 637.1c-0.7 1.2-2.2 2.9-3.6 3.2-2.5 0.7-4.9-0.3-7.2-0.7-0.4-2.7-1.4-5-1.6-7.6-1.5-1.8-0.9-5.4-1.3-7.7-1.1 0-1.6-0.7-2.5-0.4-1.1 2.2-2.9 2.4-4 4.3-0.3-2.6-2.5-5-3-7.7q-0.6-2.2-1.6-4.2c2.6-6 4.3-12.7 6.4-19.3 4.3-3.9 7.7-9.2 11-13.9 0.9-1.5 2.7-2.2 3.8-3.6 1.4 1.1 0.9-1.5 2.2-0.4 1 12.8 3 26.5 5 39.4-0.9 2.6 0 6.3 0 9.6 1.1 3.4-2.5 6.1-3.6 9z"/>
<path class="s5" d="m559 686.7q0.2-0.3 0.4-0.6c0.1 3.1 0.5 6.6-1.1 9.3-7 9.7-14.6 19.6-20.9 29.9-0.9-1.1 0.9-1.8 0.9-2.9 0-4.9 2.4-8.8 3.1-13.3 0.1-0.6 0.2-1.1 0.3-1.7q1.2-0.8 2.3-1.6c6.3-5.4 10-12.5 15-19.1z"/>
<path class="s5" d="m584.2 663c-3.7 4-7 7.7-10.2 12.2-1.5-0.7-1.5 1.5-2 2.2 0.4 1.4-1.4 1.8-1.8 3.1-1.6 3-4.1 4.3-5.8 7-0.3-2.3-0.7-4.5-1.2-6.7 3.1-4.5 6-8.9 9.7-13 4.3-4.8 8.9-9.1 12.9-13.8-0.1 3-0.8 6.3-1.6 9z"/>
<path class="s5" d="m609.4 629.7c-1.2 8.1-9.1 13.7-13.6 20-1.8 1.4-2.6 3.4-4.4 4.7-0.3-1.8-0.7-3.7-1.3-5.5 3.6-4.7 6.9-9.4 10.4-14.4 2.7-4 3.9-8.8 5.7-13.4 1.5 2.7 2.7 5.6 3.2 8.6z"/>
<path class="s12" d="m651.3 1030.1q-1.4 1.7-2.6 3.3c-1.8 2.4-5.2 5.1-6.1 8.5q-0.3 0-0.6 0c-7.7 11.2-12 22-15.6 35.1-0.4 3.1-0.9 6.3-0.4 9.4-3.2 3-6.5 4.5-9.9 6.4 0.7-1-1.6-1.9 0.2-2.5-1.5-2.5 0.3-4.5-1.1-6.8 0.5-4.7 0.7-9.9 0.9-15.5-1.6-1.8 1.1-3.4-0.2-5 0.6-5.8 0.6-12.1 1.5-18.4-0.4-2 0.1-3.2-0.2-4.9-0.6-4.5 1.1-7.7 0.9-12.4 0.5-3.9 1.2-7.7 1.1-11.9 0.7-1.6 0.1-3 1-4.6 0-3.1 1.5-6.9 1.3-10.5 0.2-1.8 1.1-3.8 1.6-5.7-0.7-2.4 1.5-3.1 2.7-4.7 4.2 0.2 9.6 1.2 14.2 1.4 2.5-0.2 5.2-0.1 8 0-0.1 1.2-0.2 2.5 0 3.7 0.6 4.7 1.4 9.2 2 14 0.8 6.5 1.4 13.9 1.3 21.1z"/>
<path class="s13" d="m637.7 926.3q-0.1 0.1-0.2 0.1c-2.5-5.6-4.7-11.4-7.4-16.1-2.8-1.4-3.9 1.3-5.2 3.1-3.4 4.1-7.7 7.9-11 12.2-1.1-0.4-2.5-0.4-3.9-0.4-0.1-4.7-0.4-9.5 0.2-14 5.9 0.3 12.4-2.9 17.7-4.3 5.8-1.4 11-3.7 17.1-5.1 6-1.5 12.1-3.2 18-4.7 3.3-0.9 6.2-1.8 9.2-2.9 0.8-0.3 1.9-0.7 3-1.2q0.5-0.1 1.2 0c-5 5.1-11.3 8.3-15.8 14.3-5.6 4.3-13.4 8.8-17.3 14.2h-0.9c-1.9 1.9-3 3.1-4.7 4.8z"/>
<path class="s13" d="m653.7 983.8c-10.8-2-22.1-1.5-32.9-1.8 0 0-0.4-0.2-0.4-0.4-7.2 0.9-14.7-0.9-21-0.4-1.7-0.5-3.5-0.7-5.4-0.8 0.3-1.5 0.5-3.1 1.2-4.4 1.6-3.1 4.2-5.9 5.8-9 3-5.6 6-9 10.3-13.8 2.1-2.3 3.4-5.9 5-9 1.7-3.4 3.3-5.4 5.7-8.2 2.2-2.5 5.1-6.1 7.2-9.6 1.2 3.4 2.4 6.9 4.4 10-2.6-1.4-4.7 1.8-6.9 2.7-8.1 10.5-11 23.4-13.5 36.4 0.6 0.7 0.7 1.6 1.3 2.1 1.1-2.1 3.2-2.1 5.2-2.8 3.8-0.6 6.1-4.4 10.4-4.4 5.3-2.1 10.3-4.6 15.5-6.3 3.3 6.3 5.8 13 8.1 19.7z"/>
<path class="s13" d="m647.6 1067.1c-4.7 3.4-8.5 9.2-13.7 12.4-0.7-3.4 0.6-6.8 0.7-10.4q0.1-0.3 0.2-0.6c2.5-3.4 4.9-7 7-10.5 1.6-2.7 5.2-10.2 9-9.8 1.3 4.3 3 8.1 3.7 11.9-2.2 2.4-4.4 4.8-6.9 7z"/>
<path class="s13" d="m440.2 835.1c0.3-0.7 0.9-1.3 1.5-1.9q0.1 0.1 0.1 0.1c3 2.6 6.8 4.6 9.5 7.7q1.7 2 3.4 3.9-0.4 0.2-0.8 0.4c-5-1.8-9.5-6.4-13.7-10.2z"/>
<path class="s13" d="m574.9 947.4c-2.7-2.9-4.9-4.3-8.3-6.5-1.8-2.3-4.1-3.8-6.5-5.7-0.3-0.2-1.2 0.3-0.9-0.4-1.4-2.3-4.3-2-5.6-4.7q1.4-0.9 2.7-1.8c1.6 1.3 3.3 2.6 5.2 3.6 6.1 3.3 11.9 7.5 17.1 12.3-1.3 1.1-2.6 2.2-3.7 3.2z"/>
<path class="s13" d="m553 924.5q-0.9 0.3-1.7 0.6c-1.8-0.6-5.4 1.2-6.3-1.1-5.4-2.2-7.9-8.1-12.8-10.6-0.5-1.3-1.4-2.2-2.5-2.7 1.3-0.9 2.5-1.9 3.7-2.9 5 4.9 9.9 9.7 15.4 13.4 1.5 0.9 2.9 2.1 4.2 3.3z"/>
<path class="s13" d="m529.7 905c-2.6 0.7-5.5 0.7-8.1 0.3-1.1-1.8-3.8-2.4-4.9-4.5-2.5 0.5-2.1-2.5-3.7-3.1-2.6-2-5.3-3.4-7.8-6.1 1.2-1.1 2.6-2.2 3.9-3.3q1.2 0.7 2.5 1.4c6.8 4.1 12.5 9.7 18.1 15.3z"/>
<path class="s13" d="m491 879.4c-0.7-1.7-2.9-2.7-4.3-3.8-2.9-2.9-6.7-5.1-9.4-6.7 0.2-0.3 2-0.9 2.7-1.6q0.4 0 0.8-0.2c1.2 1.1 2.4 2.3 3.7 3.6 2.8 3 6.1 4.3 9.7 6.2 2.7 1.5 4.2 3.7 6.5 5.8 1.3 1.2 2.8 2.2 4.3 3.1-1.5 0.8-3.1 1.7-5 1.7 0-2.2-3.1-1.3-3.2-3.3-1.7-2-3.8-3.4-5.8-4.8z"/>
<path class="s13" d="m465.3 858.1c-0.4-0.9-0.8-0.4-1.3-0.7-1.8-3.6-5.2-5.6-8.3-8.7 0.4-1.3 1.8-1.4 2.9-2.1q1.2 0.9 2.2 2.1c4.8 5.5 9.9 10.9 15.7 15-1.8 0.4-3.6-0.3-5.3-0.7-1.4-2.4-4.3-3.3-5.9-4.9z"/>
<path class="s13" d="m641.1 949q1.3-0.7 2.7-1.4c0.2 1.8 0.8 3.6 2 4.8 0.2 0.4 0 0.9 0 1.5-7 3.8-14.8 6.5-21.6 11.5-1.6 0.2-6.1 2.9-3.4-1.3 0.9-2.8 1.8-5 2.6-7.6 1.8-1.3 3.8-2.6 5.8-3.3 4.2-1.4 7.9-2.1 11.9-4.2z"/>
<path class="s13" d="m811.8 883.1c-8.7 3.5-15.5 8-24.5 10.6-3.2 1.3-6.9 3.9-10.1 1 8.5-2.8 17.1-5.2 24.7-8.8 3-1.4 6.2-2.8 9.3-4.1 0.3 0.4 0.5 0.9 0.6 1.3z"/>
<path class="s13" d="m756.9 903.1c4.9-2.8 10.3-5 15.7-6.9 0.3 1.2 1 1.8 1.5 3.1-10.2 4.5-20.5 8.1-31.1 12.8-0.8-0.1-1.8-0.2-2.8-0.3 5.7-2.6 11-5.5 16.7-8.7z"/>
<path class="s13" d="m735.1 916.1c-10.8 5.6-22.2 9.5-32.8 15.1-3.8 0-6.6 4.5-10.4 2.7-1.7 0-3.3-0.5-4.5-1.6 8.7-4.1 17.3-8.8 26.5-12.2 6.4-2.4 13.2-3.4 19.4-5.5 0.4 0.7 0.9 1.2 1.8 1.5z"/>
<path class="s13" d="m674.1 937c2.9-0.7 5.9-1.7 8.7-2.7 0.3 1.4 1 2.7 2.2 3.7q0 0.3 0 0.6c-4.3 2.1-9.1 3.8-13.3 5.4-6.6 2.3-13.1 5-19.6 7.5-1.4-0.1-3.2-1.9-4.3-3.6q0.1-0.5 0.1-1c1.7-0.6 3.3-1.2 5-2.1 6.2-3.3 14.5-6.2 21.2-7.8z"/>
<path class="s14" d="m613.9 989c0.6 1.8-1 3.2-0.9 5.2-5.2 0-10.5-0.7-15.9-0.9 0.4-2 0.8-3.9 1.4-5.8q0.9 0.1 1.8 0.2c1.6-1.6 1.9 1.1 3.4 0.2 3.2 0.9 7.2-0.2 10.2 1.1z"/>
<path class="s14" d="m608.7 1190.8c-0.5-1.1-1.8 0-2-0.9-3.4-1.3-5.9-1.8-9.5-3.1-13.1-3.4-25-5.4-38.9-7.9-0.5-0.4-0.5 0.5-1.1 0.3q-13.7-1.9-27.6-3.5c1.3-1.6 2.6-3.2 4.1-4.7 18.2-18.9 32.3-34 32.3-34s4.2-15.3 5-22c0.3-2.8-1.2-6.6-0.7-9.5 1.4 0.2 2.8 0.4 4 0.7 4.9 0.5 8.3 0 12.5 1.8 2.1 0.1 4.3 0.5 5.9 1.2 5.4 0.6 10.6 2.9 15.7 5.4-0.4 3.3 1.6 5.6 0.5 8.5 1.3 1.2-0.4 2.7 0.5 3.6-0.3 1.8-0.3 3.6 0.4 5.4-0.2 0.2-0.4 0.3-0.4 0.5 1.3 6.3 0.8 13 2.7 18.6 1.8 3.9 0 7.7 2.4 11.5-0.6 2.1 1.2 3.9 0.9 5.9 1.8 9.2 2.1 18.2 5.6 26.7-1.3-0.2-2.4-1.3-3.6-0.9 0.3-1.5-1.3-0.8-1.8-1.5-2.2-0.2-4.2-2.5-6.9-2.1z"/>
<path class="s14" d="m571.2 1100.3c0.7-3.8 1.3-7.5 1.7-11.2 1.8-15.7 9.7-29.4 12.4-45 3.7 0.4 7.2 1.1 10.5 2.1 3.9 0.7 7.5 2.4 11.1 4.5-0.2 10.1-1.2 22 0 32.6-0.2 2.2-0.5 7 0.6 9.7-0.8 2.4 0.3 5.1 0.1 7.8-0.1 1 0.4 2.1 0.8 3-11.8-1-24.6-2.4-37.2-3.5z"/>
<path class="s14" d="m612 1003.2c-0.9 3.2-0.8 7.9-1.5 11.7-0.9 7.6-2 15.5-2.5 23.6-7.6-0.8-14.8-0.6-22.2-0.3 2.2-6.5 4.3-13 5.3-19.9 1.2-7.6 3.8-14.3 5.1-21.6 2.8 0.4 5.6 0.8 8.2 1.1 2.9 0.7 5.2 2.2 7.7 3.4 0.8 0.7-0.5 1.3-0.1 2z"/>
</g>
</svg>
